ISO-10303-21;
HEADER;
FILE_DESCRIPTION (( 'STEP AP203' ),
    '1' );
FILE_NAME ('camera.STEP',
    '2026-06-17T08:25:57',
    ( '' ),
    ( '' ),
    'SwSTEP 2.0',
    'SolidWorks 2021',
    '' );
FILE_SCHEMA (( 'CONFIG_CONTROL_DESIGN' ));
ENDSEC;

DATA;
#1 = VERTEX_POINT ( 'NONE', #758 ) ;
#2 = DIRECTION ( 'NONE',  ( 1.000000000000000000, 0.000000000000000000, 0.000000000000000000 ) ) ;
#3 = EDGE_CURVE ( 'NONE', #983, #1077, #1042, .T. ) ;
#4 = CARTESIAN_POINT ( 'NONE',  ( 13.75000000000000000, 56.34999999999999432, -6.256106743762756474E-15 ) ) ;
#5 = DIRECTION ( 'NONE',  ( -0.000000000000000000, 0.000000000000000000, 1.000000000000000000 ) ) ;
#6 = CARTESIAN_POINT ( 'NONE',  ( 13.75000000000000000, 59.14999999999999147, 8.000000000000000000 ) ) ;
#7 = AXIS2_PLACEMENT_3D ( 'NONE', #476, #376, #679 ) ;
#8 = EDGE_LOOP ( 'NONE', ( #1222, #855, #1136, #1022 ) ) ;
#9 = CC_DESIGN_PERSON_AND_ORGANIZATION_ASSIGNMENT ( #324, #237, ( #700 ) ) ;
#10 = CARTESIAN_POINT ( 'NONE',  ( -8.799999999999997158, 52.79999999999998295, 9.000000000000001776 ) ) ;
#11 = DIRECTION ( 'NONE',  ( 0.000000000000000000, 0.000000000000000000, 1.000000000000000000 ) ) ;
#12 = EDGE_CURVE ( 'NONE', #862, #1075, #300, .T. ) ;
#13 = DIRECTION ( 'NONE',  ( -0.000000000000000000, -1.110223024625156540E-16, -1.000000000000000000 ) ) ;
#14 = VECTOR ( 'NONE', #840, 1000.000000000000000 ) ;
#15 = AXIS2_PLACEMENT_3D ( 'NONE', #1211, #737, #1124 ) ;
#16 = ORIENTED_EDGE ( 'NONE', *, *, #514, .F. ) ;
#17 = ORIENTED_EDGE ( 'NONE', *, *, #524, .F. ) ;
#18 = LINE ( 'NONE', #1058, #918 ) ;
#19 = CARTESIAN_POINT ( 'NONE',  ( -8.799999999999997158, 47.00000000000000000, -5.218048215738235740E-15 ) ) ;
#20 = DIRECTION ( 'NONE',  ( 0.000000000000000000, 1.000000000000000000, -1.110223024625156540E-16 ) ) ;
#21 = ORIENTED_EDGE ( 'NONE', *, *, #1207, .F. ) ;
#22 = EDGE_CURVE ( 'NONE', #121, #743, #115, .T. ) ;
#23 = DIRECTION ( 'NONE',  ( -0.000000000000000000, -1.000000000000000000, -0.000000000000000000 ) ) ;
#24 = ORIENTED_EDGE ( 'NONE', *, *, #674, .F. ) ;
#25 = CARTESIAN_POINT ( 'NONE',  ( -39.09999999999999432, 24.99999999999999645, 9.000000000000001776 ) ) ;
#26 = PLANE ( 'NONE',  #1196 ) ;
#27 = EDGE_CURVE ( 'NONE', #142, #403, #386, .T. ) ;
#28 = DIRECTION ( 'NONE',  ( 0.000000000000000000, 1.000000000000000000, -1.110223024625156540E-16 ) ) ;
#29 = ORIENTED_EDGE ( 'NONE', *, *, #1081, .T. ) ;
#30 = CARTESIAN_POINT ( 'NONE',  ( -19.09999999999999787, 24.99999999999999645, 0.000000000000000000 ) ) ;
#31 = DIRECTION ( 'NONE',  ( 0.000000000000000000, 1.000000000000000000, -1.110223024625156540E-16 ) ) ;
#32 = ADVANCED_FACE ( 'NONE', ( #947 ), #1029, .F. ) ;
#33 = CARTESIAN_POINT ( 'NONE',  ( 13.30000000000000071, 44.50000000000000000, -4.940492459581946605E-15 ) ) ;
#34 = VECTOR ( 'NONE', #549, 1000.000000000000000 ) ;
#35 = AXIS2_PLACEMENT_3D ( 'NONE', #684, #1053, #31 ) ;
#36 = ORIENTED_EDGE ( 'NONE', *, *, #488, .F. ) ;
#37 = AXIS2_PLACEMENT_3D ( 'NONE', #676, #11, #569 ) ;
#38 = EDGE_CURVE ( 'NONE', #775, #1188, #504, .T. ) ;
#39 = DIRECTION ( 'NONE',  ( -1.000000000000000000, 0.000000000000000000, 0.000000000000000000 ) ) ;
#40 = ORIENTED_EDGE ( 'NONE', *, *, #422, .F. ) ;
#41 = PERSON_AND_ORGANIZATION ( #426, #334 ) ;
#42 = EDGE_CURVE ( 'NONE', #135, #148, #294, .T. ) ;
#43 = DIRECTION ( 'NONE',  ( 0.000000000000000000, 1.000000000000000000, 0.000000000000000000 ) ) ;
#44 = VERTEX_POINT ( 'NONE', #6 ) ;
#45 = PERSON_AND_ORGANIZATION ( #426, #334 ) ;
#46 = VECTOR ( 'NONE', #875, 1000.000000000000000 ) ;
#47 = VECTOR ( 'NONE', #226, 1000.000000000000000 ) ;
#48 = FACE_OUTER_BOUND ( 'NONE', #228, .T. ) ;
#49 = ORIENTED_EDGE ( 'NONE', *, *, #929, .F. ) ;
#50 =( GEOMETRIC_REPRESENTATION_CONTEXT ( 3 ) GLOBAL_UNCERTAINTY_ASSIGNED_CONTEXT ( ( #741 ) ) GLOBAL_UNIT_ASSIGNED_CONTEXT ( ( #813, #1190, #126 ) ) REPRESENTATION_CONTEXT ( 'NONE', 'WORKASPACE' ) );
#51 = DATE_AND_TIME ( #610, #143 ) ;
#52 = AXIS2_PLACEMENT_3D ( 'NONE', #943, #5, #1112 ) ;
#53 = VECTOR ( 'NONE', #74, 1000.000000000000000 ) ;
#54 = CARTESIAN_POINT ( 'NONE',  ( 13.75000000000000000, 59.14999999999999147, 9.599999999999992539 ) ) ;
#55 = EDGE_CURVE ( 'NONE', #1050, #425, #288, .T. ) ;
#56 = ORIENTED_EDGE ( 'NONE', *, *, #27, .T. ) ;
#57 = CALENDAR_DATE ( 2026, 17, 6 ) ;
#58 = CARTESIAN_POINT ( 'NONE',  ( 16.74999999999999645, 63.00000000000000000, -4.000000000000000000 ) ) ;
#59 = CC_DESIGN_PERSON_AND_ORGANIZATION_ASSIGNMENT ( #45, #414, ( #659 ) ) ;
#60 = ORIENTED_EDGE ( 'NONE', *, *, #639, .T. ) ;
#61 = LINE ( 'NONE', #453, #584 ) ;
#62 = LINE ( 'NONE', #640, #164 ) ;
#63 = CARTESIAN_POINT ( 'NONE',  ( 39.09999999999999432, 63.00000000000000000, 9.000000000000001776 ) ) ;
#64 = DIRECTION ( 'NONE',  ( -0.000000000000000000, 1.110223024625156540E-16, 1.000000000000000000 ) ) ;
#65 = ADVANCED_FACE ( 'NONE', ( #1061 ), #989, .F. ) ;
#66 = VERTEX_POINT ( 'NONE', #698 ) ;
#67 = CARTESIAN_POINT ( 'NONE',  ( 10.80000000000000426, 40.99999999999999289, 9.000000000000001776 ) ) ;
#68 = AXIS2_PLACEMENT_3D ( 'NONE', #368, #865, #851 ) ;
#69 = FACE_OUTER_BOUND ( 'NONE', #463, .T. ) ;
#70 = LINE ( 'NONE', #1226, #440 ) ;
#71 = CIRCLE ( 'NONE', #1119, 2.500000000000002220 ) ;
#72 = ORIENTED_EDGE ( 'NONE', *, *, #604, .F. ) ;
#73 = DIRECTION ( 'NONE',  ( 0.000000000000000000, -1.000000000000000000, 0.000000000000000000 ) ) ;
#74 = DIRECTION ( 'NONE',  ( -1.000000000000000000, 1.552325258144794333E-16, -0.000000000000000000 ) ) ;
#75 = DIRECTION ( 'NONE',  ( -0.000000000000000000, -0.000000000000000000, 1.000000000000000000 ) ) ;
#76 = ADVANCED_FACE ( 'NONE', ( #784 ), #412, .T. ) ;
#77 = LINE ( 'NONE', #655, #701 ) ;
#78 = ORIENTED_EDGE ( 'NONE', *, *, #725, .F. ) ;
#79 = PLANE ( 'NONE',  #305 ) ;
#80 = DIRECTION ( 'NONE',  ( 0.000000000000000000, 0.000000000000000000, 1.000000000000000000 ) ) ;
#81 = DIRECTION ( 'NONE',  ( -0.000000000000000000, -0.000000000000000000, 1.000000000000000000 ) ) ;
#82 = CC_DESIGN_PERSON_AND_ORGANIZATION_ASSIGNMENT ( #600, #984, ( #646 ) ) ;
#83 = CYLINDRICAL_SURFACE ( 'NONE', #1014, 2.500000000000002220 ) ;
#84 = ORIENTED_EDGE ( 'NONE', *, *, #1142, .T. ) ;
#85 = LINE ( 'NONE', #714, #1099 ) ;
#86 = ORIENTED_EDGE ( 'NONE', *, *, #198, .F. ) ;
#87 = DIRECTION ( 'NONE',  ( 0.000000000000000000, 0.000000000000000000, -1.000000000000000000 ) ) ;
#88 = FACE_OUTER_BOUND ( 'NONE', #795, .T. ) ;
#89 = CARTESIAN_POINT ( 'NONE',  ( -13.75000000000000000, 30.24999999999999645, 9.599999999999996092 ) ) ;
#90 = CIRCLE ( 'NONE', #636, 2.500000000000000444 ) ;
#91 = VECTOR ( 'NONE', #163, 1000.000000000000000 ) ;
#92 = VECTOR ( 'NONE', #1167, 1000.000000000000000 ) ;
#93 = ORIENTED_EDGE ( 'NONE', *, *, #508, .T. ) ;
#94 = ORIENTED_EDGE ( 'NONE', *, *, #42, .T. ) ;
#95 = EDGE_CURVE ( 'NONE', #137, #1056, #591, .T. ) ;
#96 = VERTEX_POINT ( 'NONE', #1170 ) ;
#97 = CARTESIAN_POINT ( 'NONE',  ( -13.75000000000000000, 56.34999999999999432, -6.256106743762756474E-15 ) ) ;
#98 = LINE ( 'NONE', #777, #939 ) ;
#99 = DIRECTION ( 'NONE',  ( 1.000000000000000000, 0.000000000000000000, -0.000000000000000000 ) ) ;
#100 = ORIENTED_EDGE ( 'NONE', *, *, #410, .F. ) ;
#101 = ORIENTED_EDGE ( 'NONE', *, *, #905, .F. ) ;
#102 = DIRECTION ( 'NONE',  ( -1.000000000000000000, 0.000000000000000000, -0.000000000000000000 ) ) ;
#103 = ORIENTED_EDGE ( 'NONE', *, *, #914, .T. ) ;
#104 = CARTESIAN_POINT ( 'NONE',  ( 10.80000000000000426, 40.99999999999999289, -4.551914400963141027E-15 ) ) ;
#105 = PLANE ( 'NONE',  #187 ) ;
#106 = CARTESIAN_POINT ( 'NONE',  ( -10.79999999999999361, 47.00000000000000000, 9.000000000000001776 ) ) ;
#107 = DIRECTION ( 'NONE',  ( 0.000000000000000000, -1.110223024625156540E-16, -1.000000000000000000 ) ) ;
#108 = EDGE_CURVE ( 'NONE', #853, #574, #139, .T. ) ;
#109 = VERTEX_POINT ( 'NONE', #33 ) ;
#110 = LINE ( 'NONE', #276, #521 ) ;
#111 = FACE_OUTER_BOUND ( 'NONE', #444, .T. ) ;
#112 = LINE ( 'NONE', #1149, #1083 ) ;
#113 = AXIS2_PLACEMENT_3D ( 'NONE', #611, #317, #1184 ) ;
#114 = VECTOR ( 'NONE', #1217, 1000.000000000000000 ) ;
#115 = LINE ( 'NONE', #1223, #1213 ) ;
#116 = ORIENTED_EDGE ( 'NONE', *, *, #468, .T. ) ;
#117 = PLANE ( 'NONE',  #380 ) ;
#118 = CARTESIAN_POINT ( 'NONE',  ( -8.799999999999997158, 40.99999999999999289, 9.000000000000001776 ) ) ;
#119 = ADVANCED_FACE ( 'NONE', ( #230 ), #396, .F. ) ;
#120 = ORIENTED_EDGE ( 'NONE', *, *, #432, .T. ) ;
#121 = VERTEX_POINT ( 'NONE', #1162 ) ;
#122 = CARTESIAN_POINT ( 'NONE',  ( -13.75000000000000000, 56.34999999999999432, 9.599999999999992539 ) ) ;
#123 = DIRECTION ( 'NONE',  ( 0.000000000000000000, -1.110223024625156540E-16, -1.000000000000000000 ) ) ;
#124 = DIRECTION ( 'NONE',  ( 0.000000000000000000, -1.110223024625156540E-16, -1.000000000000000000 ) ) ;
#125 = ORIENTED_EDGE ( 'NONE', *, *, #38, .F. ) ;
#126 =( NAMED_UNIT ( * ) SI_UNIT ( $, .STERADIAN. ) SOLID_ANGLE_UNIT ( ) );
#127 = CC_DESIGN_APPROVAL ( #1090, ( #659 ) ) ;
#128 = DIRECTION ( 'NONE',  ( 0.000000000000000000, -1.110223024625156540E-16, -1.000000000000000000 ) ) ;
#129 = AXIS2_PLACEMENT_3D ( 'NONE', #833, #255, #270 ) ;
#130 = VERTEX_POINT ( 'NONE', #133 ) ;
#131 = EDGE_CURVE ( 'NONE', #1, #643, #1069, .T. ) ;
#132 = COORDINATED_UNIVERSAL_TIME_OFFSET ( 8, 0, .AHEAD. ) ;
#133 = CARTESIAN_POINT ( 'NONE',  ( 10.80000000000000071, 47.00000000000000000, -5.218048215738235740E-15 ) ) ;
#134 = EDGE_CURVE ( 'NONE', #987, #326, #204, .T. ) ;
#135 = VERTEX_POINT ( 'NONE', #1089 ) ;
#136 = FACE_OUTER_BOUND ( 'NONE', #1068, .T. ) ;
#137 = VERTEX_POINT ( 'NONE', #511 ) ;
#138 = APPROVAL_ROLE ( '' ) ;
#139 = CIRCLE ( 'NONE', #932, 1.399999999999998579 ) ;
#140 = ADVANCED_FACE ( 'NONE', ( #48 ), #217, .F. ) ;
#141 = DIRECTION ( 'NONE',  ( -0.000000000000000000, -1.110223024625156540E-16, -1.000000000000000000 ) ) ;
#142 = VERTEX_POINT ( 'NONE', #405 ) ;
#143 = LOCAL_TIME ( 16, 25, 57.00000000000000000, #232 ) ;
#144 = AXIS2_PLACEMENT_3D ( 'NONE', #982, #893, #43 ) ;
#145 = CIRCLE ( 'NONE', #937, 1.400000000000001910 ) ;
#146 = EDGE_CURVE ( 'NONE', #880, #202, #1076, .T. ) ;
#147 = DIRECTION ( 'NONE',  ( -0.000000000000000000, -0.000000000000000000, 1.000000000000000000 ) ) ;
#148 = VERTEX_POINT ( 'NONE', #977 ) ;
#149 = CARTESIAN_POINT ( 'NONE',  ( 8.800000000000004263, 47.00000000000000000, 9.000000000000001776 ) ) ;
#150 = FACE_OUTER_BOUND ( 'NONE', #823, .T. ) ;
#151 = EDGE_CURVE ( 'NONE', #605, #1050, #1178, .T. ) ;
#152 = CARTESIAN_POINT ( 'NONE',  ( 13.30000000000000249, 43.50000000000000000, 5.000000000000000000 ) ) ;
#153 = ORIENTED_EDGE ( 'NONE', *, *, #3, .F. ) ;
#154 = DIRECTION ( 'NONE',  ( -5.981805089575211974E-16, -1.000000000000000000, 1.110223024625156540E-16 ) ) ;
#155 = CARTESIAN_POINT ( 'NONE',  ( 8.800000000000004263, 40.99999999999999289, 9.599999999999994316 ) ) ;
#156 = DIRECTION ( 'NONE',  ( 0.000000000000000000, 0.000000000000000000, -1.000000000000000000 ) ) ;
#157 = EDGE_LOOP ( 'NONE', ( #999, #856, #235, #459 ) ) ;
#158 = DIRECTION ( 'NONE',  ( -1.000000000000000000, 0.000000000000000000, 0.000000000000000000 ) ) ;
#159 = EDGE_CURVE ( 'NONE', #451, #723, #715, .T. ) ;
#160 = ADVANCED_FACE ( 'NONE', ( #1080 ), #708, .F. ) ;
#161 = VECTOR ( 'NONE', #278, 1000.000000000000000 ) ;
#162 = CARTESIAN_POINT ( 'NONE',  ( -39.09999999999999432, 24.99999999999999645, -4.000000000000000000 ) ) ;
#163 = DIRECTION ( 'NONE',  ( -0.000000000000000000, 1.110223024625156540E-16, 1.000000000000000000 ) ) ;
#164 = VECTOR ( 'NONE', #1007, 1000.000000000000000 ) ;
#165 = CARTESIAN_POINT ( 'NONE',  ( -8.799999999999997158, 52.79999999999998295, -5.861977570020824640E-15 ) ) ;
#166 = VERTEX_POINT ( 'NONE', #801 ) ;
#167 = EDGE_LOOP ( 'NONE', ( #1016, #384, #413, #930 ) ) ;
#168 = DIRECTION ( 'NONE',  ( -1.000000000000000000, 0.000000000000000000, 0.000000000000000000 ) ) ;
#169 = ADVANCED_FACE ( 'NONE', ( #320 ), #1085, .F. ) ;
#170 = DIRECTION ( 'NONE',  ( 1.000000000000000000, 0.000000000000000000, 0.000000000000000000 ) ) ;
#171 = CARTESIAN_POINT ( 'NONE',  ( 10.80000000000000071, 47.00000000000000000, 5.000000000000000000 ) ) ;
#172 = DIRECTION ( 'NONE',  ( -1.000000000000000000, -0.000000000000000000, -0.000000000000000000 ) ) ;
#173 = EDGE_LOOP ( 'NONE', ( #1127, #772, #812, #497 ) ) ;
#174 = ORIENTED_EDGE ( 'NONE', *, *, #95, .T. ) ;
#175 = CARTESIAN_POINT ( 'NONE',  ( -39.09999999999999432, 24.99999999999999645, 5.000000000000000000 ) ) ;
#176 = DIRECTION ( 'NONE',  ( 0.000000000000000000, 0.000000000000000000, -1.000000000000000000 ) ) ;
#177 = FACE_OUTER_BOUND ( 'NONE', #781, .T. ) ;
#178 = DIRECTION ( 'NONE',  ( -0.000000000000000000, -0.000000000000000000, 1.000000000000000000 ) ) ;
#179 = ADVANCED_FACE ( 'NONE', ( #136 ), #515, .F. ) ;
#180 = ORIENTED_EDGE ( 'NONE', *, *, #716, .F. ) ;
#181 = ORIENTED_EDGE ( 'NONE', *, *, #913, .T. ) ;
#182 = ORIENTED_EDGE ( 'NONE', *, *, #944, .F. ) ;
#183 = CARTESIAN_POINT ( 'NONE',  ( -8.799999999999997158, 35.19999999999998153, 9.000000000000001776 ) ) ;
#184 = CARTESIAN_POINT ( 'NONE',  ( -10.79999999999999893, 40.99999999999999289, 9.000000000000001776 ) ) ;
#185 = DIRECTION ( 'NONE',  ( -0.000000000000000000, -1.110223024625156540E-16, -1.000000000000000000 ) ) ;
#186 = VECTOR ( 'NONE', #1153, 1000.000000000000000 ) ;
#187 = AXIS2_PLACEMENT_3D ( 'NONE', #1045, #1154, #193 ) ;
#188 = EDGE_LOOP ( 'NONE', ( #100, #1208, #93, #1229, #876, #72, #40, #21, #36, #240, #377, #197, #764, #1103, #940, #609 ) ) ;
#189 = ORIENTED_EDGE ( 'NONE', *, *, #866, .T. ) ;
#190 = CARTESIAN_POINT ( 'NONE',  ( -13.29999999999999538, 43.50000000000000000, -5.204170427930421283E-15 ) ) ;
#191 = ORIENTED_EDGE ( 'NONE', *, *, #422, .T. ) ;
#192 = DIRECTION ( 'NONE',  ( 1.000000000000000000, -0.000000000000000000, -0.000000000000000000 ) ) ;
#193 = DIRECTION ( 'NONE',  ( -2.891205793294679312E-16, -1.000000000000000000, 0.000000000000000000 ) ) ;
#194 = LINE ( 'NONE', #649, #979 ) ;
#195 = EDGE_CURVE ( 'NONE', #723, #574, #1200, .T. ) ;
#196 = ORIENTED_EDGE ( 'NONE', *, *, #385, .T. ) ;
#197 = ORIENTED_EDGE ( 'NONE', *, *, #233, .F. ) ;
#198 = EDGE_CURVE ( 'NONE', #564, #350, #519, .T. ) ;
#199 = CARTESIAN_POINT ( 'NONE',  ( -13.75000000000000000, 28.84999999999999432, 8.000000000000000000 ) ) ;
#200 = LINE ( 'NONE', #1148, #404 ) ;
#201 = PLANE ( 'NONE',  #286 ) ;
#202 = VERTEX_POINT ( 'NONE', #814 ) ;
#203 = ORIENTED_EDGE ( 'NONE', *, *, #606, .F. ) ;
#204 = CIRCLE ( 'NONE', #898, 1.400000000000001910 ) ;
#205 = FACE_OUTER_BOUND ( 'NONE', #580, .T. ) ;
#206 = DIRECTION ( 'NONE',  ( 1.000000000000000000, -0.000000000000000000, -0.000000000000000000 ) ) ;
#207 = CARTESIAN_POINT ( 'NONE',  ( -13.75000000000000000, 57.74999999999999289, -6.411537967210278232E-15 ) ) ;
#208 = AXIS2_PLACEMENT_3D ( 'NONE', #988, #717, #506 ) ;
#209 = VECTOR ( 'NONE', #427, 1000.000000000000000 ) ;
#210 = AXIS2_PLACEMENT_3D ( 'NONE', #246, #730, #915 ) ;
#211 = VERTEX_POINT ( 'NONE', #58 ) ;
#212 = ORIENTED_EDGE ( 'NONE', *, *, #573, .F. ) ;
#213 = EDGE_CURVE ( 'NONE', #109, #1150, #720, .T. ) ;
#214 = CARTESIAN_POINT ( 'NONE',  ( 39.09999999999999432, 24.99999999999999645, 9.000000000000001776 ) ) ;
#215 = CARTESIAN_POINT ( 'NONE',  ( 8.800000000000004263, 40.99999999999999289, -4.551914400963141027E-15 ) ) ;
#216 = EDGE_LOOP ( 'NONE', ( #1201, #191, #945, #189 ) ) ;
#217 = PLANE ( 'NONE',  #1206 ) ;
#218 = EDGE_LOOP ( 'NONE', ( #839, #428, #1138, #1128 ) ) ;
#219 = LINE ( 'NONE', #881, #562 ) ;
#220 = DIRECTION ( 'NONE',  ( 0.000000000000000000, 1.000000000000000000, -1.110223024625156540E-16 ) ) ;
#221 = EDGE_CURVE ( 'NONE', #44, #543, #1187, .T. ) ;
#222 = CARTESIAN_POINT ( 'NONE',  ( -13.75000000000000000, 28.84999999999999432, 9.599999999999996092 ) ) ;
#223 = ORIENTED_EDGE ( 'NONE', *, *, #1026, .T. ) ;
#224 = DIRECTION ( 'NONE',  ( 1.000000000000000000, 0.000000000000000000, 0.000000000000000000 ) ) ;
#225 = CC_DESIGN_PERSON_AND_ORGANIZATION_ASSIGNMENT ( #331, #407, ( #706 ) ) ;
#226 = DIRECTION ( 'NONE',  ( -0.000000000000000000, -1.000000000000000000, -0.000000000000000000 ) ) ;
#227 = CIRCLE ( 'NONE', #1062, 1.399999999999998579 ) ;
#228 = EDGE_LOOP ( 'NONE', ( #329, #499, #116, #572 ) ) ;
#229 = APPROVAL_STATUS ( 'not_yet_approved' ) ;
#230 = FACE_OUTER_BOUND ( 'NONE', #668, .T. ) ;
#231 = ORIENTED_EDGE ( 'NONE', *, *, #1038, .T. ) ;
#232 = COORDINATED_UNIVERSAL_TIME_OFFSET ( 8, 0, .AHEAD. ) ;
#233 = EDGE_CURVE ( 'NONE', #403, #903, #1102, .T. ) ;
#234 = DIRECTION ( 'NONE',  ( -0.000000000000000000, -1.110223024625156540E-16, -1.000000000000000000 ) ) ;
#235 = ORIENTED_EDGE ( 'NONE', *, *, #785, .T. ) ;
#236 = PRODUCT_RELATED_PRODUCT_CATEGORY ( 'detail', '', ( #706 ) ) ;
#237 = PERSON_AND_ORGANIZATION_ROLE ( 'classification_officer' ) ;
#238 = EDGE_CURVE ( 'NONE', #470, #903, #1143, .T. ) ;
#239 = CARTESIAN_POINT ( 'NONE',  ( 39.09999999999999432, 24.99999999999999645, 9.000000000000001776 ) ) ;
#240 = ORIENTED_EDGE ( 'NONE', *, *, #1177, .F. ) ;
#241 = VECTOR ( 'NONE', #292, 1000.000000000000000 ) ;
#242 = CARTESIAN_POINT ( 'NONE',  ( -8.799999999999997158, 47.00000000000000000, 9.000000000000001776 ) ) ;
#243 = AXIS2_PLACEMENT_3D ( 'NONE', #755, #367, #916 ) ;
#244 = EDGE_CURVE ( 'NONE', #1214, #1009, #328, .T. ) ;
#245 = VECTOR ( 'NONE', #864, 1000.000000000000000 ) ;
#246 = CARTESIAN_POINT ( 'NONE',  ( 0.000000000000000000, 0.000000000000000000, 8.000000000000000000 ) ) ;
#247 = CARTESIAN_POINT ( 'NONE',  ( 13.30000000000000249, 41.00000000000000000, -4.551914400963141816E-15 ) ) ;
#248 = VERTEX_POINT ( 'NONE', #435 ) ;
#249 = PLANE ( 'NONE',  #462 ) ;
#250 = CARTESIAN_POINT ( 'NONE',  ( -13.75000000000000000, 59.14999999999999147, 8.000000000000000000 ) ) ;
#251 = CARTESIAN_POINT ( 'NONE',  ( -39.09999999999999432, 63.00000000000000000, -4.000000000000000000 ) ) ;
#252 = EDGE_CURVE ( 'NONE', #1214, #1036, #1192, .T. ) ;
#253 = EDGE_LOOP ( 'NONE', ( #365, #911, #799, #78, #689, #752, #49, #661 ) ) ;
#254 = DIRECTION ( 'NONE',  ( -0.000000000000000000, -1.110223024625156540E-16, -1.000000000000000000 ) ) ;
#255 = DIRECTION ( 'NONE',  ( 0.000000000000000000, 0.000000000000000000, -1.000000000000000000 ) ) ;
#256 = DIRECTION ( 'NONE',  ( -0.000000000000000000, -1.110223024625156540E-16, -1.000000000000000000 ) ) ;
#257 = CARTESIAN_POINT ( 'NONE',  ( 13.30000000000000249, 44.50000000000000000, 9.000000000000001776 ) ) ;
#258 = CC_DESIGN_DATE_AND_TIME_ASSIGNMENT ( #51, #420, ( #700 ) ) ;
#259 = ORIENTED_EDGE ( 'NONE', *, *, #890, .F. ) ;
#260 = CARTESIAN_POINT ( 'NONE',  ( -10.79999999999999893, 40.99999999999999289, 5.000000000000000000 ) ) ;
#261 = VECTOR ( 'NONE', #206, 1000.000000000000000 ) ;
#262 = VECTOR ( 'NONE', #141, 1000.000000000000000 ) ;
#263 = FACE_BOUND ( 'NONE', #816, .T. ) ;
#264 = DIRECTION ( 'NONE',  ( 0.000000000000000000, -1.110223024625156540E-16, -1.000000000000000000 ) ) ;
#265 = VECTOR ( 'NONE', #1073, 1000.000000000000000 ) ;
#266 = CARTESIAN_POINT ( 'NONE',  ( 8.800000000000004263, 40.99999999999999289, 9.000000000000001776 ) ) ;
#267 = ORIENTED_EDGE ( 'NONE', *, *, #496, .F. ) ;
#268 = ORIENTED_EDGE ( 'NONE', *, *, #1176, .T. ) ;
#269 = DIRECTION ( 'NONE',  ( 0.000000000000000000, -0.000000000000000000, -1.000000000000000000 ) ) ;
#270 = DIRECTION ( 'NONE',  ( -1.000000000000000000, 0.000000000000000000, 0.000000000000000000 ) ) ;
#271 = CARTESIAN_POINT ( 'NONE',  ( 8.800000000000004263, 40.99999999999999289, 9.000000000000001776 ) ) ;
#272 = CARTESIAN_POINT ( 'NONE',  ( -39.09999999999999432, 24.99999999999999645, -4.000000000000000000 ) ) ;
#273 = EDGE_LOOP ( 'NONE', ( #1146, #1165 ) ) ;
#274 = ORIENTED_EDGE ( 'NONE', *, *, #1207, .T. ) ;
#275 = EDGE_LOOP ( 'NONE', ( #1156, #948, #1228, #599 ) ) ;
#276 = CARTESIAN_POINT ( 'NONE',  ( 8.800000000000007816, 52.79999999999998295, 9.000000000000001776 ) ) ;
#277 = LINE ( 'NONE', #171, #91 ) ;
#278 = DIRECTION ( 'NONE',  ( -0.000000000000000000, 1.000000000000000000, -0.000000000000000000 ) ) ;
#279 = ORIENTED_EDGE ( 'NONE', *, *, #423, .T. ) ;
#280 = EDGE_LOOP ( 'NONE', ( #946, #259, #883, #1063, #1157, #101, #484, #693 ) ) ;
#281 = EDGE_LOOP ( 'NONE', ( #742, #180, #436, #1121 ) ) ;
#282 = DIRECTION ( 'NONE',  ( -0.000000000000000000, 1.000000000000000000, 0.000000000000000000 ) ) ;
#283 = DIRECTION ( 'NONE',  ( -0.000000000000000000, -1.000000000000000000, -0.000000000000000000 ) ) ;
#284 = EDGE_CURVE ( 'NONE', #403, #425, #1163, .T. ) ;
#285 = FACE_OUTER_BOUND ( 'NONE', #471, .T. ) ;
#286 = AXIS2_PLACEMENT_3D ( 'NONE', #873, #1066, #778 ) ;
#287 = AXIS2_PLACEMENT_3D ( 'NONE', #332, #921, #1011 ) ;
#288 = LINE ( 'NONE', #667, #1160 ) ;
#289 = ORIENTED_EDGE ( 'NONE', *, *, #233, .T. ) ;
#290 = DIRECTION ( 'NONE',  ( -1.000000000000000000, -0.000000000000000000, -0.000000000000000000 ) ) ;
#291 = LINE ( 'NONE', #1052, #722 ) ;
#292 = DIRECTION ( 'NONE',  ( -0.000000000000000000, -1.110223024625156540E-16, -1.000000000000000000 ) ) ;
#293 = EDGE_CURVE ( 'NONE', #1150, #554, #906, .T. ) ;
#294 = LINE ( 'NONE', #860, #46 ) ;
#295 = ADVANCED_FACE ( 'NONE', ( #1018 ), #925, .F. ) ;
#296 = EDGE_LOOP ( 'NONE', ( #505, #1169, #1091, #938 ) ) ;
#297 = FACE_OUTER_BOUND ( 'NONE', #280, .T. ) ;
#298 = DIRECTION ( 'NONE',  ( 0.000000000000000000, 0.000000000000000000, 1.000000000000000000 ) ) ;
#299 = LINE ( 'NONE', #501, #615 ) ;
#300 = LINE ( 'NONE', #846, #1057 ) ;
#301 = EDGE_CURVE ( 'NONE', #458, #516, #1097, .T. ) ;
#302 = ORIENTED_EDGE ( 'NONE', *, *, #797, .T. ) ;
#303 = CARTESIAN_POINT ( 'NONE',  ( -8.799999999999997158, 52.79999999999998295, 9.599999999999994316 ) ) ;
#304 = CARTESIAN_POINT ( 'NONE',  ( 13.75000000000000000, 57.74999999999999289, -6.411537967210278232E-15 ) ) ;
#305 = AXIS2_PLACEMENT_3D ( 'NONE', #620, #1122, #931 ) ;
#306 = AXIS2_PLACEMENT_3D ( 'NONE', #807, #325, #333 ) ;
#307 = CIRCLE ( 'NONE', #996, 1.400000000000001910 ) ;
#308 = DIRECTION ( 'NONE',  ( -0.000000000000000000, 0.000000000000000000, -1.000000000000000000 ) ) ;
#309 = ORIENTED_EDGE ( 'NONE', *, *, #1079, .T. ) ;
#310 = DIRECTION ( 'NONE',  ( 0.000000000000000000, 1.000000000000000000, -1.110223024625156540E-16 ) ) ;
#311 = FACE_OUTER_BOUND ( 'NONE', #485, .T. ) ;
#312 = ADVANCED_FACE ( 'NONE', ( #544 ), #249, .T. ) ;
#313 = ORIENTED_EDGE ( 'NONE', *, *, #480, .F. ) ;
#314 = CARTESIAN_POINT ( 'NONE',  ( 13.75000000000000000, 30.24999999999999645, -3.358424649491098140E-15 ) ) ;
#315 = ORIENTED_EDGE ( 'NONE', *, *, #478, .F. ) ;
#316 = DATE_AND_TIME ( #607, #1180 ) ;
#317 = DIRECTION ( 'NONE',  ( 0.000000000000000000, 0.000000000000000000, -1.000000000000000000 ) ) ;
#318 = ORIENTED_EDGE ( 'NONE', *, *, #1142, .F. ) ;
#319 = ADVANCED_FACE ( 'NONE', ( #337 ), #1010, .F. ) ;
#320 = FACE_OUTER_BOUND ( 'NONE', #976, .T. ) ;
#321 = CIRCLE ( 'NONE', #336, 1.400000000000000133 ) ;
#322 = AXIS2_PLACEMENT_3D ( 'NONE', #927, #1205, #347 ) ;
#323 = ORIENTED_EDGE ( 'NONE', *, *, #985, .T. ) ;
#324 = PERSON_AND_ORGANIZATION ( #426, #334 ) ;
#325 = DIRECTION ( 'NONE',  ( -0.000000000000000000, -1.110223024625156540E-16, -1.000000000000000000 ) ) ;
#326 = VERTEX_POINT ( 'NONE', #1189 ) ;
#327 = APPROVAL_STATUS ( 'not_yet_approved' ) ;
#328 = LINE ( 'NONE', #622, #805 ) ;
#329 = ORIENTED_EDGE ( 'NONE', *, *, #213, .T. ) ;
#330 = CARTESIAN_POINT ( 'NONE',  ( -8.799999999999997158, 35.19999999999998153, 9.599999999999996092 ) ) ;
#331 = PERSON_AND_ORGANIZATION ( #426, #334 ) ;
#332 = CARTESIAN_POINT ( 'NONE',  ( 13.75000000000000000, 57.74999999999999289, 9.599999999999992539 ) ) ;
#333 = DIRECTION ( 'NONE',  ( 0.000000000000000000, 1.000000000000000000, 0.000000000000000000 ) ) ;
#334 = ORGANIZATION ( '未指定', '未指定', '' ) ;
#335 = ORIENTED_EDGE ( 'NONE', *, *, #468, .F. ) ;
#336 = AXIS2_PLACEMENT_3D ( 'NONE', #1104, #1194, #158 ) ;
#337 = FACE_OUTER_BOUND ( 'NONE', #780, .T. ) ;
#338 = DATE_AND_TIME ( #446, #994 ) ;
#339 = VECTOR ( 'NONE', #290, 1000.000000000000000 ) ;
#340 = DIRECTION ( 'NONE',  ( 1.000000000000000000, 0.000000000000000000, 0.000000000000000000 ) ) ;
#341 = CARTESIAN_POINT ( 'NONE',  ( 13.75000000000000000, 30.24999999999999645, 8.000000000000000000 ) ) ;
#342 = ADVANCED_FACE ( 'NONE', ( #445, #832 ), #79, .T. ) ;
#343 = DIRECTION ( 'NONE',  ( -0.000000000000000000, -1.000000000000000000, -0.000000000000000000 ) ) ;
#344 = ORIENTED_EDGE ( 'NONE', *, *, #955, .F. ) ;
#345 = LINE ( 'NONE', #1209, #417 ) ;
#346 = CARTESIAN_POINT ( 'NONE',  ( -13.75000000000000000, 30.24999999999999645, 8.000000000000000000 ) ) ;
#347 = DIRECTION ( 'NONE',  ( -1.000000000000000000, 0.000000000000000000, 0.000000000000000000 ) ) ;
#348 = CYLINDRICAL_SURFACE ( 'NONE', #68, 2.500000000000002220 ) ;
#349 = EDGE_CURVE ( 'NONE', #543, #1075, #227, .T. ) ;
#350 = VERTEX_POINT ( 'NONE', #242 ) ;
#351 = DIRECTION ( 'NONE',  ( -0.000000000000000000, -0.000000000000000000, 1.000000000000000000 ) ) ;
#352 = FACE_BOUND ( 'NONE', #705, .T. ) ;
#353 = DIRECTION ( 'NONE',  ( -1.000000000000000000, -0.000000000000000000, -0.000000000000000000 ) ) ;
#354 = CARTESIAN_POINT ( 'NONE',  ( 13.75000000000000000, 30.24999999999999645, -3.358424649491098140E-15 ) ) ;
#355 = ORIENTED_EDGE ( 'NONE', *, *, #371, .F. ) ;
#356 = CARTESIAN_POINT ( 'NONE',  ( -16.75000000000000000, 24.99999999999999289, -4.000000000000000000 ) ) ;
#357 = VECTOR ( 'NONE', #64, 1000.000000000000000 ) ;
#358 = FACE_BOUND ( 'NONE', #188, .T. ) ;
#359 = CARTESIAN_POINT ( 'NONE',  ( 8.800000000000004263, 47.00000000000000000, -5.218048215738235740E-15 ) ) ;
#360 = AXIS2_PLACEMENT_3D ( 'NONE', #346, #1197, #1210 ) ;
#361 = DIRECTION ( 'NONE',  ( 0.000000000000000000, -1.000000000000000000, 0.000000000000000000 ) ) ;
#362 = ORIENTED_EDGE ( 'NONE', *, *, #108, .T. ) ;
#363 = ORIENTED_EDGE ( 'NONE', *, *, #854, .F. ) ;
#364 = CARTESIAN_POINT ( 'NONE',  ( 39.09999999999999432, 0.000000000000000000, 0.000000000000000000 ) ) ;
#365 = ORIENTED_EDGE ( 'NONE', *, *, #244, .F. ) ;
#366 = CARTESIAN_POINT ( 'NONE',  ( -8.799999999999997158, 40.99999999999999289, 9.599999999999994316 ) ) ;
#367 = DIRECTION ( 'NONE',  ( 1.000000000000000000, -5.981805089575211974E-16, 6.641137739266347289E-32 ) ) ;
#368 = CARTESIAN_POINT ( 'NONE',  ( 10.80000000000000071, 43.50000000000000000, 9.599999999999994316 ) ) ;
#369 = EDGE_LOOP ( 'NONE', ( #409, #309, #362, #699 ) ) ;
#370 = EDGE_LOOP ( 'NONE', ( #302, #1179 ) ) ;
#371 = EDGE_CURVE ( 'NONE', #1108, #899, #1023, .T. ) ;
#372 = ORIENTED_EDGE ( 'NONE', *, *, #985, .F. ) ;
#373 = CARTESIAN_POINT ( 'NONE',  ( 39.09999999999999432, 63.00000000000000000, -4.000000000000000000 ) ) ;
#374 = CARTESIAN_POINT ( 'NONE',  ( 16.74999999999999645, 63.00000000000000000, -4.000000000000000000 ) ) ;
#375 = DIRECTION ( 'NONE',  ( -0.000000000000000000, 0.000000000000000000, -1.000000000000000000 ) ) ;
#376 = DIRECTION ( 'NONE',  ( 0.000000000000000000, 0.000000000000000000, -1.000000000000000000 ) ) ;
#377 = ORIENTED_EDGE ( 'NONE', *, *, #238, .T. ) ;
#378 = CARTESIAN_POINT ( 'NONE',  ( 8.800000000000007816, 52.79999999999998295, -5.861977570020824640E-15 ) ) ;
#379 = FACE_OUTER_BOUND ( 'NONE', #218, .T. ) ;
#380 = AXIS2_PLACEMENT_3D ( 'NONE', #389, #582, #963 ) ;
#381 = CARTESIAN_POINT ( 'NONE',  ( -8.799999999999997158, 47.00000000000000000, 9.599999999999994316 ) ) ;
#382 = VECTOR ( 'NONE', #577, 1000.000000000000000 ) ;
#383 = VECTOR ( 'NONE', #75, 1000.000000000000000 ) ;
#384 = ORIENTED_EDGE ( 'NONE', *, *, #1203, .T. ) ;
#385 = EDGE_CURVE ( 'NONE', #1188, #987, #85, .T. ) ;
#386 = LINE ( 'NONE', #190, #957 ) ;
#387 = ORIENTED_EDGE ( 'NONE', *, *, #981, .T. ) ;
#388 = PLANE ( 'NONE',  #1182 ) ;
#389 = CARTESIAN_POINT ( 'NONE',  ( -39.09999999999999432, 0.000000000000000000, 0.000000000000000000 ) ) ;
#390 = LINE ( 'NONE', #677, #241 ) ;
#391 = EDGE_CURVE ( 'NONE', #564, #166, #345, .T. ) ;
#392 = DIRECTION ( 'NONE',  ( -1.000000000000000000, 1.541976423090495633E-15, -1.711937728344210134E-31 ) ) ;
#393 = ORIENTED_EDGE ( 'NONE', *, *, #38, .T. ) ;
#394 = LINE ( 'NONE', #782, #683 ) ;
#395 = CARTESIAN_POINT ( 'NONE',  ( -13.75000000000000000, 30.24999999999999645, 9.599999999999996092 ) ) ;
#396 = CYLINDRICAL_SURFACE ( 'NONE', #578, 2.500000000000002220 ) ;
#397 = ORIENTED_EDGE ( 'NONE', *, *, #431, .F. ) ;
#398 = EDGE_CURVE ( 'NONE', #109, #130, #90, .T. ) ;
#399 = DIRECTION ( 'NONE',  ( 1.000000000000000000, -0.000000000000000000, -0.000000000000000000 ) ) ;
#400 = CARTESIAN_POINT ( 'NONE',  ( -13.75000000000000000, 57.74999999999999289, 9.599999999999992539 ) ) ;
#401 = VECTOR ( 'NONE', #902, 1000.000000000000000 ) ;
#402 = VECTOR ( 'NONE', #922, 1000.000000000000000 ) ;
#403 = VERTEX_POINT ( 'NONE', #1006 ) ;
#404 = VECTOR ( 'NONE', #682, 1000.000000000000000 ) ;
#405 = CARTESIAN_POINT ( 'NONE',  ( -13.29999999999999538, 43.50000000000000000, 9.000000000000001776 ) ) ;
#406 = VERTEX_POINT ( 'NONE', #149 ) ;
#407 = PERSON_AND_ORGANIZATION_ROLE ( 'design_owner' ) ;
#408 = DIRECTION ( 'NONE',  ( 0.000000000000000000, 1.110223024625156540E-16, 1.000000000000000000 ) ) ;
#409 = ORIENTED_EDGE ( 'NONE', *, *, #159, .F. ) ;
#410 = EDGE_CURVE ( 'NONE', #588, #548, #61, .T. ) ;
#411 = EDGE_CURVE ( 'NONE', #723, #451, #321, .T. ) ;
#412 = PLANE ( 'NONE',  #990 ) ;
#413 = ORIENTED_EDGE ( 'NONE', *, *, #252, .T. ) ;
#414 = PERSON_AND_ORGANIZATION_ROLE ( 'design_supplier' ) ;
#415 = VECTOR ( 'NONE', #691, 1000.000000000000000 ) ;
#416 = CARTESIAN_POINT ( 'NONE',  ( -8.799999999999997158, 40.99999999999999289, 9.599999999999994316 ) ) ;
#417 = VECTOR ( 'NONE', #254, 1000.000000000000000 ) ;
#418 = VECTOR ( 'NONE', #850, 1000.000000000000000 ) ;
#419 = VERTEX_POINT ( 'NONE', #526 ) ;
#420 = DATE_TIME_ROLE ( 'classification_date' ) ;
#421 = PRODUCT_DEFINITION_SHAPE ( 'NONE', 'NONE',  #646 ) ;
#422 = EDGE_CURVE ( 'NONE', #899, #1047, #908, .T. ) ;
#423 = EDGE_CURVE ( 'NONE', #1031, #475, #912, .T. ) ;
#424 = CARTESIAN_POINT ( 'NONE',  ( -13.75000000000000000, 59.14999999999999147, 9.599999999999992539 ) ) ;
#425 = VERTEX_POINT ( 'NONE', #824 ) ;
#426 = PERSON ( '未指定', '未指定', '未指定', ('未指定'), ('未指定'), ('未指定') ) ;
#427 = DIRECTION ( 'NONE',  ( -0.000000000000000000, -1.110223024625156540E-16, -1.000000000000000000 ) ) ;
#428 = ORIENTED_EDGE ( 'NONE', *, *, #488, .T. ) ;
#429 = DIRECTION ( 'NONE',  ( 0.000000000000000000, -1.000000000000000000, 1.110223024625156540E-16 ) ) ;
#430 = COORDINATED_UNIVERSAL_TIME_OFFSET ( 8, 0, .AHEAD. ) ;
#431 = EDGE_CURVE ( 'NONE', #425, #1028, #735, .T. ) ;
#432 = EDGE_CURVE ( 'NONE', #121, #1, #537, .T. ) ;
#433 = DIRECTION ( 'NONE',  ( 0.000000000000000000, -1.110223024625156540E-16, -1.000000000000000000 ) ) ;
#434 = LINE ( 'NONE', #1116, #418 ) ;
#435 = CARTESIAN_POINT ( 'NONE',  ( -8.799999999999997158, 47.00000000000000000, -5.218048215738235740E-15 ) ) ;
#436 = ORIENTED_EDGE ( 'NONE', *, *, #221, .T. ) ;
#437 = AXIS2_PLACEMENT_3D ( 'NONE', #356, #168, #460 ) ;
#438 = DIRECTION ( 'NONE',  ( 1.000000000000000000, -0.000000000000000000, -0.000000000000000000 ) ) ;
#439 = ADVANCED_FACE ( 'NONE', ( #920 ), #923, .F. ) ;
#440 = VECTOR ( 'NONE', #834, 1000.000000000000000 ) ;
#441 = CARTESIAN_POINT ( 'NONE',  ( 0.000000000000000000, 0.000000000000000000, -4.000000000000000000 ) ) ;
#442 = LINE ( 'NONE', #465, #638 ) ;
#443 = APPLICATION_CONTEXT ( 'configuration controlled 3d designs of mechanical parts and assemblies' ) ;
#444 = EDGE_LOOP ( 'NONE', ( #658, #680, #153, #315 ) ) ;
#445 = FACE_OUTER_BOUND ( 'NONE', #167, .T. ) ;
#446 = CALENDAR_DATE ( 2026, 17, 6 ) ;
#447 = CARTESIAN_POINT ( 'NONE',  ( 10.80000000000000071, 43.50000000000000000, 9.000000000000001776 ) ) ;
#448 = LINE ( 'NONE', #842, #847 ) ;
#449 = PLANE ( 'NONE',  #995 ) ;
#450 = ADVANCED_FACE ( 'NONE', ( #756 ), #83, .F. ) ;
#451 = VERTEX_POINT ( 'NONE', #570 ) ;
#452 = EDGE_LOOP ( 'NONE', ( #766, #773, #387, #759 ) ) ;
#453 = CARTESIAN_POINT ( 'NONE',  ( 8.800000000000004263, 40.99999999999999289, -4.551914400963141027E-15 ) ) ;
#454 = DIRECTION ( 'NONE',  ( 0.000000000000000000, 0.000000000000000000, -1.000000000000000000 ) ) ;
#455 = CARTESIAN_POINT ( 'NONE',  ( -10.79999999999999361, 47.00000000000000000, 9.000000000000001776 ) ) ;
#456 = CARTESIAN_POINT ( 'NONE',  ( 10.80000000000000071, 43.50000000000000000, 0.000000000000000000 ) ) ;
#457 = ADVANCED_FACE ( 'NONE', ( #1125 ), #348, .F. ) ;
#458 = VERTEX_POINT ( 'NONE', #542 ) ;
#459 = ORIENTED_EDGE ( 'NONE', *, *, #1177, .T. ) ;
#460 = DIRECTION ( 'NONE',  ( 0.000000000000000000, 0.000000000000000000, 1.000000000000000000 ) ) ;
#461 = LOCAL_TIME ( 16, 25, 57.00000000000000000, #132 ) ;
#462 = AXIS2_PLACEMENT_3D ( 'NONE', #817, #73, #269 ) ;
#463 = EDGE_LOOP ( 'NONE', ( #1113, #1126, #972, #555 ) ) ;
#464 = FACE_OUTER_BOUND ( 'NONE', #596, .T. ) ;
#465 = CARTESIAN_POINT ( 'NONE',  ( 39.09999999999999432, 63.00000000000000000, 5.000000000000000888 ) ) ;
#466 = CIRCLE ( 'NONE', #360, 1.400000000000001910 ) ;
#467 = DIRECTION ( 'NONE',  ( 0.000000000000000000, -1.000000000000000000, 0.000000000000000000 ) ) ;
#468 = EDGE_CURVE ( 'NONE', #554, #757, #762, .T. ) ;
#469 = ORIENTED_EDGE ( 'NONE', *, *, #740, .T. ) ;
#470 = VERTEX_POINT ( 'NONE', #749 ) ;
#471 = EDGE_LOOP ( 'NONE', ( #1017, #885, #29, #60 ) ) ;
#472 = DIRECTION ( 'NONE',  ( 5.981805089575211974E-16, 1.000000000000000000, -0.000000000000000000 ) ) ;
#473 = CARTESIAN_POINT ( 'NONE',  ( 8.800000000000004263, 47.00000000000000000, 9.599999999999994316 ) ) ;
#474 = DIRECTION ( 'NONE',  ( -0.000000000000000000, -0.000000000000000000, 1.000000000000000000 ) ) ;
#475 = VERTEX_POINT ( 'NONE', #633 ) ;
#476 = CARTESIAN_POINT ( 'NONE',  ( 13.75000000000000000, 30.24999999999999645, 8.000000000000000000 ) ) ;
#477 = ORIENTED_EDGE ( 'NONE', *, *, #514, .T. ) ;
#478 = EDGE_CURVE ( 'NONE', #516, #983, #732, .T. ) ;
#479 = CARTESIAN_POINT ( 'NONE',  ( -16.75000000000000000, 24.99999999999999289, -4.000000000000000000 ) ) ;
#480 = EDGE_CURVE ( 'NONE', #350, #952, #951, .T. ) ;
#481 = DIRECTION ( 'NONE',  ( -0.000000000000000000, -1.110223024625156540E-16, -1.000000000000000000 ) ) ;
#482 = DIRECTION ( 'NONE',  ( 0.000000000000000000, 1.110223024625156540E-16, 1.000000000000000000 ) ) ;
#483 = ORIENTED_EDGE ( 'NONE', *, *, #896, .F. ) ;
#484 = ORIENTED_EDGE ( 'NONE', *, *, #432, .F. ) ;
#485 = EDGE_LOOP ( 'NONE', ( #763, #274, #355, #848 ) ) ;
#486 = CARTESIAN_POINT ( 'NONE',  ( -19.09999999999999787, 63.00000000000000000, 1.387778780781445676E-14 ) ) ;
#487 = CARTESIAN_POINT ( 'NONE',  ( 8.800000000000007816, 52.79999999999998295, 9.000000000000001776 ) ) ;
#488 = EDGE_CURVE ( 'NONE', #248, #166, #1141, .T. ) ;
#489 = CYLINDRICAL_SURFACE ( 'NONE', #870, 1.399999999999998579 ) ;
#490 = VECTOR ( 'NONE', #1021, 1000.000000000000000 ) ;
#491 = CIRCLE ( 'NONE', #887, 2.500000000000000444 ) ;
#492 = ORIENTED_EDGE ( 'NONE', *, *, #1087, .T. ) ;
#493 = ORIENTED_EDGE ( 'NONE', *, *, #1129, .T. ) ;
#494 = CARTESIAN_POINT ( 'NONE',  ( 13.75000000000000000, 31.64999999999999858, 8.000000000000000000 ) ) ;
#495 = DIRECTION ( 'NONE',  ( 0.000000000000000000, 1.000000000000000000, 0.000000000000000000 ) ) ;
#496 = EDGE_CURVE ( 'NONE', #1145, #1009, #77, .T. ) ;
#497 = ORIENTED_EDGE ( 'NONE', *, *, #221, .F. ) ;
#498 = DIRECTION ( 'NONE',  ( 0.000000000000000000, -1.000000000000000000, 0.000000000000000000 ) ) ;
#499 = ORIENTED_EDGE ( 'NONE', *, *, #293, .T. ) ;
#500 = LINE ( 'NONE', #122, #1166 ) ;
#501 = CARTESIAN_POINT ( 'NONE',  ( 8.800000000000004263, 47.00000000000000000, 9.599999999999994316 ) ) ;
#502 = ADVANCED_FACE ( 'NONE', ( #1027 ), #449, .F. ) ;
#503 = DIRECTION ( 'NONE',  ( -0.000000000000000000, -1.110223024625156540E-16, -1.000000000000000000 ) ) ;
#504 = CIRCLE ( 'NONE', #7, 1.400000000000001910 ) ;
#505 = ORIENTED_EDGE ( 'NONE', *, *, #604, .T. ) ;
#506 = DIRECTION ( 'NONE',  ( 9.130123557772667102E-17, 1.000000000000000000, 0.000000000000000000 ) ) ;
#507 = VECTOR ( 'NONE', #768, 1000.000000000000000 ) ;
#508 = EDGE_CURVE ( 'NONE', #869, #1150, #1219, .T. ) ;
#509 = CARTESIAN_POINT ( 'NONE',  ( -16.75000000000000000, 24.99999999999999289, 0.000000000000000000 ) ) ;
#510 = ORIENTED_EDGE ( 'NONE', *, *, #293, .F. ) ;
#511 = CARTESIAN_POINT ( 'NONE',  ( 16.74999999999999289, 24.99999999999999645, 0.000000000000000000 ) ) ;
#512 = VERTEX_POINT ( 'NONE', #1212 ) ;
#513 = COORDINATED_UNIVERSAL_TIME_OFFSET ( 8, 0, .AHEAD. ) ;
#514 = EDGE_CURVE ( 'NONE', #326, #987, #685, .T. ) ;
#515 = CYLINDRICAL_SURFACE ( 'NONE', #306, 1.400000000000001910 ) ;
#516 = VERTEX_POINT ( 'NONE', #665 ) ;
#517 = APPROVAL_ROLE ( '' ) ;
#518 = CC_DESIGN_SECURITY_CLASSIFICATION ( #700, ( #659 ) ) ;
#519 = LINE ( 'NONE', #811, #744 ) ;
#520 = VECTOR ( 'NONE', #547, 1000.000000000000000 ) ;
#521 = VECTOR ( 'NONE', #472, 1000.000000000000000 ) ;
#522 = ORIENTED_EDGE ( 'NONE', *, *, #598, .T. ) ;
#523 = DIRECTION ( 'NONE',  ( -1.000000000000000000, 0.000000000000000000, 0.000000000000000000 ) ) ;
#524 = EDGE_CURVE ( 'NONE', #96, #1031, #1227, .T. ) ;
#525 = ORIENTED_EDGE ( 'NONE', *, *, #244, .T. ) ;
#526 = CARTESIAN_POINT ( 'NONE',  ( 10.80000000000000071, 47.00000000000000000, 9.000000000000001776 ) ) ;
#527 = CARTESIAN_POINT ( 'NONE',  ( 0.000000000000000000, 0.000000000000000000, 0.000000000000000000 ) ) ;
#528 = DIRECTION ( 'NONE',  ( -1.000000000000000000, 0.000000000000000000, 0.000000000000000000 ) ) ;
#529 = EDGE_LOOP ( 'NONE', ( #1055, #672, #84, #734 ) ) ;
#530 = CARTESIAN_POINT ( 'NONE',  ( 13.75000000000000000, 57.74999999999999289, -6.411537967210278232E-15 ) ) ;
#531 = DIRECTION ( 'NONE',  ( 0.000000000000000000, 0.000000000000000000, 1.000000000000000000 ) ) ;
#532 = DIRECTION ( 'NONE',  ( 0.000000000000000000, -1.000000000000000000, 0.000000000000000000 ) ) ;
#533 = CC_DESIGN_APPROVAL ( #571, ( #700 ) ) ;
#534 = EDGE_CURVE ( 'NONE', #211, #1056, #194, .T. ) ;
#535 = ORIENTED_EDGE ( 'NONE', *, *, #697, .T. ) ;
#536 = AXIS2_PLACEMENT_3D ( 'NONE', #330, #1109, #745 ) ;
#537 = LINE ( 'NONE', #637, #14 ) ;
#538 = APPROVAL_DATE_TIME ( #338, #571 ) ;
#539 = AXIS2_PLACEMENT_3D ( 'NONE', #1111, #256, #632 ) ;
#540 = DIRECTION ( 'NONE',  ( 1.541976423090495633E-15, -1.000000000000000000, 1.110223024625156540E-16 ) ) ;
#541 = CARTESIAN_POINT ( 'NONE',  ( -8.799999999999997158, 40.99999999999999289, -4.551914400963141027E-15 ) ) ;
#542 = CARTESIAN_POINT ( 'NONE',  ( -39.09999999999999432, 24.99999999999999645, 9.000000000000001776 ) ) ;
#543 = VERTEX_POINT ( 'NONE', #1133 ) ;
#544 = FACE_OUTER_BOUND ( 'NONE', #253, .T. ) ;
#545 = PLANE ( 'NONE',  #1164 ) ;
#546 = DIRECTION ( 'NONE',  ( -1.000000000000000000, 0.000000000000000000, 0.000000000000000000 ) ) ;
#547 = DIRECTION ( 'NONE',  ( -0.000000000000000000, 1.000000000000000000, -1.110223024625156540E-16 ) ) ;
#548 = VERTEX_POINT ( 'NONE', #843 ) ;
#549 = DIRECTION ( 'NONE',  ( -0.000000000000000000, -1.110223024625156540E-16, -1.000000000000000000 ) ) ;
#550 = CARTESIAN_POINT ( 'NONE',  ( -13.29999999999999538, 44.50000000000000000, 9.000000000000001776 ) ) ;
#551 = CARTESIAN_POINT ( 'NONE',  ( -8.799999999999997158, 47.00000000000000000, 9.599999999999994316 ) ) ;
#552 = CC_DESIGN_DATE_AND_TIME_ASSIGNMENT ( #993, #891, ( #646 ) ) ;
#553 = CARTESIAN_POINT ( 'NONE',  ( -13.75000000000000000, 31.64999999999999858, -3.513855872938620293E-15 ) ) ;
#554 = VERTEX_POINT ( 'NONE', #1218 ) ;
#555 = ORIENTED_EDGE ( 'NONE', *, *, #725, .T. ) ;
#556 = APPROVAL_PERSON_ORGANIZATION ( #41, #1090, #517 ) ;
#557 = VECTOR ( 'NONE', #438, 1000.000000000000000 ) ;
#558 = VERTEX_POINT ( 'NONE', #553 ) ;
#559 = AXIS2_PLACEMENT_3D ( 'NONE', #304, #123, #220 ) ;
#560 = LINE ( 'NONE', #10, #339 ) ;
#561 = CARTESIAN_POINT ( 'NONE',  ( 8.800000000000004263, 35.19999999999998153, 9.000000000000001776 ) ) ;
#562 = VECTOR ( 'NONE', #481, 1000.000000000000000 ) ;
#563 = DIRECTION ( 'NONE',  ( 0.000000000000000000, 1.000000000000000000, 0.000000000000000000 ) ) ;
#564 = VERTEX_POINT ( 'NONE', #935 ) ;
#565 = CARTESIAN_POINT ( 'NONE',  ( -39.09999999999999432, 63.00000000000000000, 5.000000000000000888 ) ) ;
#566 = ADVANCED_FACE ( 'NONE', ( #285 ), #1035, .F. ) ;
#567 = ORIENTED_EDGE ( 'NONE', *, *, #854, .T. ) ;
#568 = DIRECTION ( 'NONE',  ( 1.000000000000000000, 0.000000000000000000, 0.000000000000000000 ) ) ;
#569 = DIRECTION ( 'NONE',  ( 1.000000000000000000, 0.000000000000000000, 0.000000000000000000 ) ) ;
#570 = CARTESIAN_POINT ( 'NONE',  ( -13.75000000000000000, 56.34999999999999432, 8.000000000000000000 ) ) ;
#571 = APPROVAL ( #327, '未指定' ) ;
#572 = ORIENTED_EDGE ( 'NONE', *, *, #964, .T. ) ;
#573 = EDGE_CURVE ( 'NONE', #903, #751, #859, .T. ) ;
#574 = VERTEX_POINT ( 'NONE', #878 ) ;
#575 = CARTESIAN_POINT ( 'NONE',  ( 0.000000000000000000, 0.000000000000000000, 8.000000000000000000 ) ) ;
#576 = PLANE ( 'NONE',  #1101 ) ;
#577 = DIRECTION ( 'NONE',  ( -0.000000000000000000, 1.110223024625156540E-16, 1.000000000000000000 ) ) ;
#578 = AXIS2_PLACEMENT_3D ( 'NONE', #794, #408, #498 ) ;
#579 = DIRECTION ( 'NONE',  ( -0.000000000000000000, -1.110223024625156540E-16, -1.000000000000000000 ) ) ;
#580 = EDGE_LOOP ( 'NONE', ( #838, #231 ) ) ;
#581 = PLANE ( 'NONE',  #662 ) ;
#582 = DIRECTION ( 'NONE',  ( -1.000000000000000000, 0.000000000000000000, -0.000000000000000000 ) ) ;
#583 = DIRECTION ( 'NONE',  ( 0.000000000000000000, 1.110223024625156540E-16, 1.000000000000000000 ) ) ;
#584 = VECTOR ( 'NONE', #429, 1000.000000000000000 ) ;
#585 = ADVANCED_FACE ( 'NONE', ( #958 ), #26, .F. ) ;
#586 = AXIS2_PLACEMENT_3D ( 'NONE', #395, #671, #973 ) ;
#587 = EDGE_LOOP ( 'NONE', ( #1048, #623 ) ) ;
#588 = VERTEX_POINT ( 'NONE', #215 ) ;
#589 = FACE_OUTER_BOUND ( 'NONE', #1193, .T. ) ;
#590 = CARTESIAN_POINT ( 'NONE',  ( 8.800000000000004263, 47.00000000000000000, -5.218048215738235740E-15 ) ) ;
#591 = LINE ( 'NONE', #688, #678 ) ;
#592 = ORIENTED_EDGE ( 'NONE', *, *, #914, .F. ) ;
#593 = ADVANCED_BREP_SHAPE_REPRESENTATION ( 'camera', ( #892, #1098 ), #50 ) ;
#594 = CYLINDRICAL_SURFACE ( 'NONE', #586, 1.400000000000001910 ) ;
#595 = EDGE_CURVE ( 'NONE', #406, #1047, #299, .T. ) ;
#596 = EDGE_LOOP ( 'NONE', ( #203, #279, #323, #469 ) ) ;
#597 = DIRECTION ( 'NONE',  ( -0.000000000000000000, -1.110223024625156540E-16, -1.000000000000000000 ) ) ;
#598 = EDGE_CURVE ( 'NONE', #1009, #66, #112, .T. ) ;
#599 = ORIENTED_EDGE ( 'NONE', *, *, #1034, .T. ) ;
#600 = PERSON_AND_ORGANIZATION ( #426, #334 ) ;
#601 = VECTOR ( 'NONE', #724, 1000.000000000000000 ) ;
#602 = CIRCLE ( 'NONE', #15, 2.500000000000002220 ) ;
#603 = DIRECTION ( 'NONE',  ( 0.000000000000000000, 1.000000000000000000, -1.110223024625156540E-16 ) ) ;
#604 = EDGE_CURVE ( 'NONE', #1047, #130, #1060, .T. ) ;
#605 = VERTEX_POINT ( 'NONE', #118 ) ;
#606 = EDGE_CURVE ( 'NONE', #1031, #588, #390, .T. ) ;
#607 = CALENDAR_DATE ( 2026, 17, 6 ) ;
#608 = DIRECTION ( 'NONE',  ( -1.000000000000000000, 0.000000000000000000, 0.000000000000000000 ) ) ;
#609 = ORIENTED_EDGE ( 'NONE', *, *, #808, .F. ) ;
#610 = CALENDAR_DATE ( 2026, 17, 6 ) ;
#611 = CARTESIAN_POINT ( 'NONE',  ( -13.75000000000000000, 57.74999999999999289, 8.000000000000000000 ) ) ;
#612 = EDGE_LOOP ( 'NONE', ( #525, #267, #181, #793 ) ) ;
#613 = APPROVAL_ROLE ( '' ) ;
#614 = CC_DESIGN_APPROVAL ( #1107, ( #646 ) ) ;
#615 = VECTOR ( 'NONE', #13, 1000.000000000000000 ) ;
#616 = DIRECTION ( 'NONE',  ( 0.000000000000000000, 1.000000000000000000, 0.000000000000000000 ) ) ;
#617 = AXIS2_PLACEMENT_3D ( 'NONE', #527, #454, #1204 ) ;
#618 = CIRCLE ( 'NONE', #37, 2.500000000000002220 ) ;
#619 = ORIENTED_EDGE ( 'NONE', *, *, #134, .F. ) ;
#620 = CARTESIAN_POINT ( 'NONE',  ( 0.000000000000000000, 0.000000000000000000, 9.000000000000001776 ) ) ;
#621 = CARTESIAN_POINT ( 'NONE',  ( 13.75000000000000000, 28.84999999999999432, 8.000000000000000000 ) ) ;
#622 = CARTESIAN_POINT ( 'NONE',  ( 39.09999999999999432, 24.99999999999999645, 5.000000000000000000 ) ) ;
#623 = ORIENTED_EDGE ( 'NONE', *, *, #108, .F. ) ;
#624 = DIRECTION ( 'NONE',  ( -0.000000000000000000, -1.110223024625156540E-16, -1.000000000000000000 ) ) ;
#625 = CARTESIAN_POINT ( 'NONE',  ( -10.79999999999999538, 43.50000000000000000, 9.000000000000001776 ) ) ;
#626 = DIRECTION ( 'NONE',  ( 0.000000000000000000, -1.110223024625156540E-16, -1.000000000000000000 ) ) ;
#627 = ADVANCED_FACE ( 'NONE', ( #965 ), #594, .F. ) ;
#628 = ORIENTED_EDGE ( 'NONE', *, *, #785, .F. ) ;
#629 = CARTESIAN_POINT ( 'NONE',  ( 8.800000000000007816, 52.79999999999998295, -5.861977570020824640E-15 ) ) ;
#630 = ADVANCED_FACE ( 'NONE', ( #311 ), #201, .F. ) ;
#631 = DIRECTION ( 'NONE',  ( 1.000000000000000000, 1.541976423090495633E-15, 0.000000000000000000 ) ) ;
#632 = DIRECTION ( 'NONE',  ( 0.000000000000000000, 1.000000000000000000, 0.000000000000000000 ) ) ;
#633 = CARTESIAN_POINT ( 'NONE',  ( 10.80000000000000426, 40.99999999999999289, 9.000000000000001776 ) ) ;
#634 = LOCAL_TIME ( 16, 25, 57.00000000000000000, #513 ) ;
#635 = ORIENTED_EDGE ( 'NONE', *, *, #534, .F. ) ;
#636 = AXIS2_PLACEMENT_3D ( 'NONE', #729, #351, #1000 ) ;
#637 = CARTESIAN_POINT ( 'NONE',  ( -16.75000000000000000, 63.00000000000000000, -4.000000000000000000 ) ) ;
#638 = VECTOR ( 'NONE', #81, 1000.000000000000000 ) ;
#639 = EDGE_CURVE ( 'NONE', #558, #202, #806, .T. ) ;
#640 = CARTESIAN_POINT ( 'NONE',  ( 8.800000000000004263, 40.99999999999999289, -4.551914400963141027E-15 ) ) ;
#641 = CARTESIAN_POINT ( 'NONE',  ( 13.75000000000000000, 31.64999999999999858, -3.513855872938620293E-15 ) ) ;
#642 = CARTESIAN_POINT ( 'NONE',  ( 10.80000000000000071, 44.50000000000000000, 9.599999999999994316 ) ) ;
#643 = VERTEX_POINT ( 'NONE', #790 ) ;
#644 = ORIENTED_EDGE ( 'NONE', *, *, #131, .T. ) ;
#645 = DIRECTION ( 'NONE',  ( 0.000000000000000000, 1.000000000000000000, -1.110223024625156540E-16 ) ) ;
#646 = PRODUCT_DEFINITION ( '未知', '', #659, #830 ) ;
#647 = FACE_OUTER_BOUND ( 'NONE', #687, .T. ) ;
#648 = CARTESIAN_POINT ( 'NONE',  ( 16.74999999999999645, 63.00000000000000000, 0.000000000000000000 ) ) ;
#649 = CARTESIAN_POINT ( 'NONE',  ( 16.74999999999999645, 63.00000000000000000, -4.000000000000000000 ) ) ;
#650 = ORIENTED_EDGE ( 'NONE', *, *, #95, .F. ) ;
#651 = DIRECTION ( 'NONE',  ( -0.000000000000000000, -0.000000000000000000, 1.000000000000000000 ) ) ;
#652 = ORIENTED_EDGE ( 'NONE', *, *, #874, .T. ) ;
#653 = LINE ( 'NONE', #863, #507 ) ;
#654 = DIRECTION ( 'NONE',  ( 0.000000000000000000, 1.000000000000000000, -1.110223024625156540E-16 ) ) ;
#655 = CARTESIAN_POINT ( 'NONE',  ( 39.09999999999999432, 63.00000000000000000, -4.000000000000000000 ) ) ;
#656 = ADVANCED_FACE ( 'NONE', ( #970 ), #489, .F. ) ;
#657 = ORIENTED_EDGE ( 'NONE', *, *, #398, .F. ) ;
#658 = ORIENTED_EDGE ( 'NONE', *, *, #301, .F. ) ;
#659 = PRODUCT_DEFINITION_FORMATION_WITH_SPECIFIED_SOURCE ( '任何', '', #706, .NOT_KNOWN. ) ;
#660 = VECTOR ( 'NONE', #771, 1000.000000000000000 ) ;
#661 = ORIENTED_EDGE ( 'NONE', *, *, #598, .F. ) ;
#662 = AXIS2_PLACEMENT_3D ( 'NONE', #575, #954, #2 ) ;
#663 = DIRECTION ( 'NONE',  ( 1.000000000000000000, -1.541976423090495633E-15, 0.000000000000000000 ) ) ;
#664 = LINE ( 'NONE', #19, #261 ) ;
#665 = CARTESIAN_POINT ( 'NONE',  ( -39.09999999999999432, 24.99999999999999645, -4.000000000000000000 ) ) ;
#666 = EDGE_CURVE ( 'NONE', #574, #853, #1144, .T. ) ;
#667 = CARTESIAN_POINT ( 'NONE',  ( -8.799999999999997158, 40.99999999999999289, -4.551914400963141027E-15 ) ) ;
#668 = EDGE_LOOP ( 'NONE', ( #628, #709, #212, #1152 ) ) ;
#669 = CARTESIAN_POINT ( 'NONE',  ( -13.29999999999999361, 44.50000000000000000, -4.940492459581946605E-15 ) ) ;
#670 = CARTESIAN_POINT ( 'NONE',  ( 13.30000000000000249, 43.50000000000000000, -4.829470157119430951E-15 ) ) ;
#671 = DIRECTION ( 'NONE',  ( -0.000000000000000000, -1.110223024625156540E-16, -1.000000000000000000 ) ) ;
#672 = ORIENTED_EDGE ( 'NONE', *, *, #431, .T. ) ;
#673 = ORIENTED_EDGE ( 'NONE', *, *, #681, .F. ) ;
#674 = EDGE_CURVE ( 'NONE', #96, #548, #783, .T. ) ;
#675 = CARTESIAN_POINT ( 'NONE',  ( -19.09999999999999787, 63.00000000000000000, 5.000000000000000888 ) ) ;
#676 = CARTESIAN_POINT ( 'NONE',  ( 10.80000000000000071, 44.50000000000000000, 9.000000000000001776 ) ) ;
#677 = CARTESIAN_POINT ( 'NONE',  ( 8.800000000000004263, 40.99999999999999289, 9.599999999999994316 ) ) ;
#678 = VECTOR ( 'NONE', #879, 1000.000000000000000 ) ;
#679 = DIRECTION ( 'NONE',  ( -1.000000000000000000, 0.000000000000000000, 0.000000000000000000 ) ) ;
#680 = ORIENTED_EDGE ( 'NONE', *, *, #975, .F. ) ;
#681 = EDGE_CURVE ( 'NONE', #1075, #543, #1199, .T. ) ;
#682 = DIRECTION ( 'NONE',  ( -0.000000000000000000, 1.000000000000000000, -1.110223024625156540E-16 ) ) ;
#683 = VECTOR ( 'NONE', #1065, 1000.000000000000000 ) ;
#684 = CARTESIAN_POINT ( 'NONE',  ( -13.75000000000000000, 30.24999999999999645, -3.358424649491098140E-15 ) ) ;
#685 = CIRCLE ( 'NONE', #917, 1.400000000000001910 ) ;
#686 = VECTOR ( 'NONE', #192, 1000.000000000000000 ) ;
#687 = EDGE_LOOP ( 'NONE', ( #103, #393 ) ) ;
#688 = CARTESIAN_POINT ( 'NONE',  ( 16.74999999999999645, 63.00000000000000000, 0.000000000000000000 ) ) ;
#689 = ORIENTED_EDGE ( 'NONE', *, *, #827, .T. ) ;
#690 = ADVANCED_FACE ( 'NONE', ( #647 ), #1105, .F. ) ;
#691 = DIRECTION ( 'NONE',  ( 1.000000000000000000, 0.000000000000000000, 0.000000000000000000 ) ) ;
#692 = DIRECTION ( 'NONE',  ( -0.000000000000000000, -1.110223024625156540E-16, -1.000000000000000000 ) ) ;
#693 = ORIENTED_EDGE ( 'NONE', *, *, #1172, .F. ) ;
#694 = DIRECTION ( 'NONE',  ( 1.000000000000000000, 2.891205793294679312E-16, -3.209883240645394001E-32 ) ) ;
#695 = ORIENTED_EDGE ( 'NONE', *, *, #284, .F. ) ;
#696 = APPLICATION_PROTOCOL_DEFINITION ( 'international standard', 'config_control_design', 1994, #991 ) ;
#697 = EDGE_CURVE ( 'NONE', #142, #1028, #491, .T. ) ;
#698 = CARTESIAN_POINT ( 'NONE',  ( 16.74999999999999289, 24.99999999999999645, -4.000000000000000000 ) ) ;
#699 = ORIENTED_EDGE ( 'NONE', *, *, #195, .F. ) ;
#700 = SECURITY_CLASSIFICATION ( '', '', #1181 ) ;
#701 = VECTOR ( 'NONE', #467, 1000.000000000000000 ) ;
#702 = ADVANCED_FACE ( 'NONE', ( #1191 ), #1110, .F. ) ;
#703 = AXIS2_PLACEMENT_3D ( 'NONE', #155, #540, #631 ) ;
#704 = CARTESIAN_POINT ( 'NONE',  ( -13.75000000000000000, 57.74999999999999289, -6.411537967210278232E-15 ) ) ;
#705 = EDGE_LOOP ( 'NONE', ( #619, #16 ) ) ;
#706 = PRODUCT ( 'camera', 'camera', '', ( #904 ) ) ;
#707 = APPLICATION_PROTOCOL_DEFINITION ( 'international standard', 'config_control_design', 1994, #443 ) ;
#708 = CYLINDRICAL_SURFACE ( 'NONE', #144, 1.399999999999998579 ) ;
#709 = ORIENTED_EDGE ( 'NONE', *, *, #1054, .T. ) ;
#710 = CARTESIAN_POINT ( 'NONE',  ( 0.000000000000000000, 0.000000000000000000, 0.000000000000000000 ) ) ;
#711 = ADVANCED_FACE ( 'NONE', ( #464 ), #726, .F. ) ;
#712 = CARTESIAN_POINT ( 'NONE',  ( -10.79999999999999361, 44.50000000000000000, 0.000000000000000000 ) ) ;
#713 = ORIENTED_EDGE ( 'NONE', *, *, #134, .T. ) ;
#714 = CARTESIAN_POINT ( 'NONE',  ( 13.75000000000000000, 31.64999999999999858, 9.599999999999996092 ) ) ;
#715 = CIRCLE ( 'NONE', #113, 1.400000000000000133 ) ;
#716 = EDGE_CURVE ( 'NONE', #44, #862, #746, .T. ) ;
#717 = DIRECTION ( 'NONE',  ( 1.000000000000000000, -9.130123557772667102E-17, 0.000000000000000000 ) ) ;
#718 = LINE ( 'NONE', #162, #53 ) ;
#719 = VECTOR ( 'NONE', #172, 1000.000000000000000 ) ;
#720 = LINE ( 'NONE', #247, #401 ) ;
#721 = AXIS2_PLACEMENT_3D ( 'NONE', #933, #87, #818 ) ;
#722 = VECTOR ( 'NONE', #787, 1000.000000000000000 ) ;
#723 = VERTEX_POINT ( 'NONE', #250 ) ;
#724 = DIRECTION ( 'NONE',  ( 0.000000000000000000, 0.000000000000000000, -1.000000000000000000 ) ) ;
#725 = EDGE_CURVE ( 'NONE', #743, #516, #718, .T. ) ;
#726 = PLANE ( 'NONE',  #703 ) ;
#727 = CARTESIAN_POINT ( 'NONE',  ( -39.09999999999999432, 63.00000000000000000, 9.000000000000001776 ) ) ;
#728 = EDGE_LOOP ( 'NONE', ( #1070, #522, #493, #652 ) ) ;
#729 = CARTESIAN_POINT ( 'NONE',  ( 10.80000000000000071, 44.50000000000000000, 0.000000000000000000 ) ) ;
#730 = DIRECTION ( 'NONE',  ( -0.000000000000000000, 0.000000000000000000, 1.000000000000000000 ) ) ;
#731 = CYLINDRICAL_SURFACE ( 'NONE', #539, 1.400000000000001910 ) ;
#732 = LINE ( 'NONE', #272, #1037 ) ;
#733 = EDGE_CURVE ( 'NONE', #475, #554, #71, .T. ) ;
#734 = ORIENTED_EDGE ( 'NONE', *, *, #151, .T. ) ;
#735 = LINE ( 'NONE', #260, #1118 ) ;
#736 = FACE_BOUND ( 'NONE', #889, .T. ) ;
#737 = DIRECTION ( 'NONE',  ( 0.000000000000000000, 0.000000000000000000, 1.000000000000000000 ) ) ;
#738 = DIRECTION ( 'NONE',  ( 0.000000000000000000, -1.110223024625156540E-16, -1.000000000000000000 ) ) ;
#739 = APPROVAL_PERSON_ORGANIZATION ( #1088, #1107, #138 ) ;
#740 = EDGE_CURVE ( 'NONE', #869, #588, #62, .T. ) ;
#741 = UNCERTAINTY_MEASURE_WITH_UNIT (LENGTH_MEASURE( 1.000000000000000082E-05 ), #813, 'distance_accuracy_value', 'NONE');
#742 = ORIENTED_EDGE ( 'NONE', *, *, #12, .F. ) ;
#743 = VERTEX_POINT ( 'NONE', #1100 ) ;
#744 = VECTOR ( 'NONE', #343, 1000.000000000000000 ) ;
#745 = DIRECTION ( 'NONE',  ( 0.000000000000000000, -1.110223024625156540E-16, -1.000000000000000000 ) ) ;
#746 = CIRCLE ( 'NONE', #129, 1.400000000000000133 ) ;
#747 = CARTESIAN_POINT ( 'NONE',  ( -10.79999999999999538, 43.50000000000000000, 9.599999999999994316 ) ) ;
#748 = CARTESIAN_POINT ( 'NONE',  ( -13.75000000000000000, 30.24999999999999645, -3.358424649491098140E-15 ) ) ;
#749 = CARTESIAN_POINT ( 'NONE',  ( -10.79999999999999361, 47.00000000000000000, -5.218048215738235740E-15 ) ) ;
#750 = ORIENTED_EDGE ( 'NONE', *, *, #697, .F. ) ;
#751 = VERTEX_POINT ( 'NONE', #550 ) ;
#752 = ORIENTED_EDGE ( 'NONE', *, *, #1134, .T. ) ;
#753 = LINE ( 'NONE', #183, #1064 ) ;
#754 = ADVANCED_FACE ( 'NONE', ( #69 ), #545, .T. ) ;
#755 = CARTESIAN_POINT ( 'NONE',  ( 8.800000000000007816, 52.79999999999998295, 9.599999999999994316 ) ) ;
#756 = FACE_OUTER_BOUND ( 'NONE', #1224, .T. ) ;
#757 = VERTEX_POINT ( 'NONE', #1002 ) ;
#758 = CARTESIAN_POINT ( 'NONE',  ( -16.75000000000000000, 63.00000000000000000, 1.387778780781445676E-14 ) ) ;
#759 = ORIENTED_EDGE ( 'NONE', *, *, #1081, .F. ) ;
#760 = PLANE ( 'NONE',  #1220 ) ;
#761 = CARTESIAN_POINT ( 'NONE',  ( 39.09999999999999432, 63.00000000000000000, -4.000000000000000000 ) ) ;
#762 = LINE ( 'NONE', #257, #490 ) ;
#763 = ORIENTED_EDGE ( 'NONE', *, *, #391, .T. ) ;
#764 = ORIENTED_EDGE ( 'NONE', *, *, #284, .T. ) ;
#765 = AXIS2_PLACEMENT_3D ( 'NONE', #456, #474, #836 ) ;
#766 = ORIENTED_EDGE ( 'NONE', *, *, #770, .F. ) ;
#767 = AXIS2_PLACEMENT_3D ( 'NONE', #675, #282, #857 ) ;
#768 = DIRECTION ( 'NONE',  ( -1.000000000000000000, 0.000000000000000000, 0.000000000000000000 ) ) ;
#769 = DIRECTION ( 'NONE',  ( -1.000000000000000000, 0.000000000000000000, 0.000000000000000000 ) ) ;
#770 = EDGE_CURVE ( 'NONE', #880, #512, #466, .T. ) ;
#771 = DIRECTION ( 'NONE',  ( 1.000000000000000000, 0.000000000000000000, 0.000000000000000000 ) ) ;
#772 = ORIENTED_EDGE ( 'NONE', *, *, #12, .T. ) ;
#773 = ORIENTED_EDGE ( 'NONE', *, *, #146, .T. ) ;
#774 = EDGE_LOOP ( 'NONE', ( #372, #831, #510, #1120 ) ) ;
#775 = VERTEX_POINT ( 'NONE', #621 ) ;
#776 = DIRECTION ( 'NONE',  ( -0.000000000000000000, 0.000000000000000000, 1.000000000000000000 ) ) ;
#777 = CARTESIAN_POINT ( 'NONE',  ( -8.799999999999997158, 40.99999999999999289, 9.000000000000001776 ) ) ;
#778 = DIRECTION ( 'NONE',  ( 0.000000000000000000, 1.110223024625156540E-16, 1.000000000000000000 ) ) ;
#779 = ADVANCED_FACE ( 'NONE', ( #352, #736, #1115, #358, #263, #150 ), #825, .T. ) ;
#780 = EDGE_LOOP ( 'NONE', ( #644, #1039, #1082, #120 ) ) ;
#781 = EDGE_LOOP ( 'NONE', ( #125, #223, #477, #966 ) ) ;
#782 = CARTESIAN_POINT ( 'NONE',  ( 3.000000000000002220, 52.79999999999998295, -5.861977570020824640E-15 ) ) ;
#783 = LINE ( 'NONE', #1161, #265 ) ;
#784 = FACE_OUTER_BOUND ( 'NONE', #728, .T. ) ;
#785 = EDGE_CURVE ( 'NONE', #952, #470, #909, .T. ) ;
#786 = ORIENTED_EDGE ( 'NONE', *, *, #423, .F. ) ;
#787 = DIRECTION ( 'NONE',  ( 1.000000000000000000, 0.000000000000000000, 0.000000000000000000 ) ) ;
#788 = AXIS2_PLACEMENT_3D ( 'NONE', #1094, #147, #528 ) ;
#789 = ADVANCED_FACE ( 'NONE', ( #841 ), #1216, .F. ) ;
#790 = CARTESIAN_POINT ( 'NONE',  ( -16.75000000000000000, 24.99999999999999645, 0.000000000000000000 ) ) ;
#791 = VECTOR ( 'NONE', #532, 1000.000000000000000 ) ;
#792 = AXIS2_PLACEMENT_3D ( 'NONE', #473, #310, #872 ) ;
#793 = ORIENTED_EDGE ( 'NONE', *, *, #252, .F. ) ;
#794 = CARTESIAN_POINT ( 'NONE',  ( -10.79999999999999361, 44.50000000000000000, 9.599999999999994316 ) ) ;
#795 = EDGE_LOOP ( 'NONE', ( #289, #1174, #268, #56 ) ) ;
#796 = COORDINATED_UNIVERSAL_TIME_OFFSET ( 8, 0, .AHEAD. ) ;
#797 = EDGE_CURVE ( 'NONE', #512, #880, #997, .T. ) ;
#798 = DIRECTION ( 'NONE',  ( 0.000000000000000000, 1.000000000000000000, 0.000000000000000000 ) ) ;
#799 = ORIENTED_EDGE ( 'NONE', *, *, #301, .T. ) ;
#800 = APPROVAL_STATUS ( 'not_yet_approved' ) ;
#801 = CARTESIAN_POINT ( 'NONE',  ( -8.799999999999997158, 52.79999999999998295, -5.861977570020824640E-15 ) ) ;
#802 = ORIENTED_EDGE ( 'NONE', *, *, #349, .F. ) ;
#803 = DIRECTION ( 'NONE',  ( 0.000000000000000000, 0.000000000000000000, 1.000000000000000000 ) ) ;
#804 = APPROVAL_PERSON_ORGANIZATION ( #810, #571, #613 ) ;
#805 = VECTOR ( 'NONE', #1003, 1000.000000000000000 ) ;
#806 = CIRCLE ( 'NONE', #35, 1.400000000000001910 ) ;
#807 = CARTESIAN_POINT ( 'NONE',  ( 13.75000000000000000, 30.24999999999999645, 9.599999999999996092 ) ) ;
#808 = EDGE_CURVE ( 'NONE', #548, #148, #18, .T. ) ;
#809 = EDGE_LOOP ( 'NONE', ( #86, #483, #1005, #344, #907, #335, #968, #786, #17, #953, #363, #318, #750, #894, #867, #313 ) ) ;
#810 = PERSON_AND_ORGANIZATION ( #426, #334 ) ;
#811 = CARTESIAN_POINT ( 'NONE',  ( -8.799999999999997158, 47.00000000000000000, 9.000000000000001776 ) ) ;
#812 = ORIENTED_EDGE ( 'NONE', *, *, #681, .T. ) ;
#813 =( LENGTH_UNIT ( ) NAMED_UNIT ( * ) SI_UNIT ( .MILLI., .METRE. ) );
#814 = CARTESIAN_POINT ( 'NONE',  ( -13.75000000000000000, 28.84999999999999432, -3.202993426043575988E-15 ) ) ;
#815 = ADVANCED_FACE ( 'NONE', ( #1225 ), #388, .F. ) ;
#816 = EDGE_LOOP ( 'NONE', ( #1135, #1043 ) ) ;
#817 = CARTESIAN_POINT ( 'NONE',  ( -19.09999999999999787, 24.99999999999999645, 5.000000000000000000 ) ) ;
#818 = DIRECTION ( 'NONE',  ( -1.000000000000000000, 0.000000000000000000, 0.000000000000000000 ) ) ;
#819 = CARTESIAN_POINT ( 'NONE',  ( 10.80000000000000426, 40.99999999999999289, -4.926614671774132148E-15 ) ) ;
#820 = AXIS2_PLACEMENT_3D ( 'NONE', #89, #185, #563 ) ;
#821 = CARTESIAN_POINT ( 'NONE',  ( -13.29999999999999538, 41.00000000000000000, -4.551914400963141816E-15 ) ) ;
#822 = VECTOR ( 'NONE', #626, 1000.000000000000000 ) ;
#823 = EDGE_LOOP ( 'NONE', ( #959, #961, #967, #650 ) ) ;
#824 = CARTESIAN_POINT ( 'NONE',  ( -10.79999999999999893, 40.99999999999999289, -4.551914400963141027E-15 ) ) ;
#825 = PLANE ( 'NONE',  #617 ) ;
#826 = LINE ( 'NONE', #561, #114 ) ;
#827 = EDGE_CURVE ( 'NONE', #743, #643, #949, .T. ) ;
#828 = ADVANCED_FACE ( 'NONE', ( #297 ), #1139, .T. ) ;
#829 = VECTOR ( 'NONE', #234, 1000.000000000000000 ) ;
#830 = DESIGN_CONTEXT ( 'detailed design', #991, 'design' ) ;
#831 = ORIENTED_EDGE ( 'NONE', *, *, #733, .T. ) ;
#832 = FACE_BOUND ( 'NONE', #809, .T. ) ;
#833 = CARTESIAN_POINT ( 'NONE',  ( 13.75000000000000000, 57.74999999999999289, 8.000000000000000000 ) ) ;
#834 = DIRECTION ( 'NONE',  ( -0.000000000000000000, -1.110223024625156540E-16, -1.000000000000000000 ) ) ;
#835 = CC_DESIGN_PERSON_AND_ORGANIZATION_ASSIGNMENT ( #895, #900, ( #659 ) ) ;
#836 = DIRECTION ( 'NONE',  ( -1.000000000000000000, 0.000000000000000000, 0.000000000000000000 ) ) ;
#837 = ADVANCED_FACE ( 'NONE', ( #871 ), #760, .F. ) ;
#838 = ORIENTED_EDGE ( 'NONE', *, *, #716, .T. ) ;
#839 = ORIENTED_EDGE ( 'NONE', *, *, #1067, .T. ) ;
#840 = DIRECTION ( 'NONE',  ( -0.000000000000000000, -0.000000000000000000, 1.000000000000000000 ) ) ;
#841 = FACE_OUTER_BOUND ( 'NONE', #1171, .T. ) ;
#842 = CARTESIAN_POINT ( 'NONE',  ( 8.800000000000004263, 47.00000000000000000, 9.000000000000001776 ) ) ;
#843 = CARTESIAN_POINT ( 'NONE',  ( 8.800000000000004263, 35.19999999999998153, 0.000000000000000000 ) ) ;
#844 = AXIS2_PLACEMENT_3D ( 'NONE', #416, #608, #986 ) ;
#845 = ORIENTED_EDGE ( 'NONE', *, *, #410, .T. ) ;
#846 = CARTESIAN_POINT ( 'NONE',  ( 13.75000000000000000, 56.34999999999999432, 9.599999999999992539 ) ) ;
#847 = VECTOR ( 'NONE', #353, 1000.000000000000000 ) ;
#848 = ORIENTED_EDGE ( 'NONE', *, *, #896, .T. ) ;
#849 = DIRECTION ( 'NONE',  ( -1.541976423090495633E-15, -1.000000000000000000, 1.110223024625156540E-16 ) ) ;
#850 = DIRECTION ( 'NONE',  ( 0.000000000000000000, -1.110223024625156540E-16, -1.000000000000000000 ) ) ;
#851 = DIRECTION ( 'NONE',  ( 0.000000000000000000, -1.000000000000000000, 0.000000000000000000 ) ) ;
#852 = VECTOR ( 'NONE', #597, 1000.000000000000000 ) ;
#853 = VERTEX_POINT ( 'NONE', #97 ) ;
#854 = EDGE_CURVE ( 'NONE', #605, #135, #753, .T. ) ;
#855 = ORIENTED_EDGE ( 'NONE', *, *, #411, .F. ) ;
#856 = ORIENTED_EDGE ( 'NONE', *, *, #480, .T. ) ;
#857 = DIRECTION ( 'NONE',  ( 0.000000000000000000, -0.000000000000000000, 1.000000000000000000 ) ) ;
#858 = FACE_OUTER_BOUND ( 'NONE', #296, .T. ) ;
#859 = LINE ( 'NONE', #1046, #382 ) ;
#860 = CARTESIAN_POINT ( 'NONE',  ( -8.799999999999997158, 35.19999999999998153, 9.599999999999996092 ) ) ;
#861 = ADVANCED_FACE ( 'NONE', ( #205 ), #581, .F. ) ;
#862 = VERTEX_POINT ( 'NONE', #1044 ) ;
#863 = CARTESIAN_POINT ( 'NONE',  ( 39.09999999999999432, 63.00000000000000000, 9.000000000000001776 ) ) ;
#864 = DIRECTION ( 'NONE',  ( 1.000000000000000000, 0.000000000000000000, 0.000000000000000000 ) ) ;
#865 = DIRECTION ( 'NONE',  ( 0.000000000000000000, 1.110223024625156540E-16, 1.000000000000000000 ) ) ;
#866 = EDGE_CURVE ( 'NONE', #406, #1108, #110, .T. ) ;
#867 = ORIENTED_EDGE ( 'NONE', *, *, #1054, .F. ) ;
#868 = VECTOR ( 'NONE', #616, 1000.000000000000000 ) ;
#869 = VERTEX_POINT ( 'NONE', #104 ) ;
#870 = AXIS2_PLACEMENT_3D ( 'NONE', #400, #692, #495 ) ;
#871 = FACE_OUTER_BOUND ( 'NONE', #529, .T. ) ;
#872 = DIRECTION ( 'NONE',  ( 0.000000000000000000, 1.110223024625156540E-16, 1.000000000000000000 ) ) ;
#873 = CARTESIAN_POINT ( 'NONE',  ( 3.000000000000002220, 52.79999999999998295, 9.599999999999994316 ) ) ;
#874 = EDGE_CURVE ( 'NONE', #211, #1145, #1032, .T. ) ;
#875 = DIRECTION ( 'NONE',  ( -0.000000000000000000, -1.110223024625156540E-16, -1.000000000000000000 ) ) ;
#876 = ORIENTED_EDGE ( 'NONE', *, *, #398, .T. ) ;
#877 = LINE ( 'NONE', #25, #415 ) ;
#878 = CARTESIAN_POINT ( 'NONE',  ( -13.75000000000000000, 59.14999999999999147, -6.566969190657799990E-15 ) ) ;
#879 = DIRECTION ( 'NONE',  ( 9.130123557772667102E-17, 1.000000000000000000, -0.000000000000000000 ) ) ;
#880 = VERTEX_POINT ( 'NONE', #199 ) ;
#881 = CARTESIAN_POINT ( 'NONE',  ( -13.75000000000000000, 31.64999999999999858, 9.599999999999996092 ) ) ;
#882 = DIRECTION ( 'NONE',  ( -1.000000000000000000, 0.000000000000000000, 0.000000000000000000 ) ) ;
#883 = ORIENTED_EDGE ( 'NONE', *, *, #913, .F. ) ;
#884 = CARTESIAN_POINT ( 'NONE',  ( 0.000000000000000000, 0.000000000000000000, -4.000000000000000000 ) ) ;
#885 = ORIENTED_EDGE ( 'NONE', *, *, #797, .F. ) ;
#886 = VECTOR ( 'NONE', #154, 1000.000000000000000 ) ;
#887 = AXIS2_PLACEMENT_3D ( 'NONE', #625, #80, #340 ) ;
#888 = CARTESIAN_POINT ( 'NONE',  ( 13.75000000000000000, 57.74999999999999289, 9.599999999999992539 ) ) ;
#889 = EDGE_LOOP ( 'NONE', ( #802, #673 ) ) ;
#890 = EDGE_CURVE ( 'NONE', #1036, #1077, #653, .T. ) ;
#891 = DATE_TIME_ROLE ( 'creation_date' ) ;
#892 = MANIFOLD_SOLID_BREP ( '移动面3', #974 ) ;
#893 = DIRECTION ( 'NONE',  ( -0.000000000000000000, -1.110223024625156540E-16, -1.000000000000000000 ) ) ;
#894 = ORIENTED_EDGE ( 'NONE', *, *, #1176, .F. ) ;
#895 = PERSON_AND_ORGANIZATION ( #426, #334 ) ;
#896 = EDGE_CURVE ( 'NONE', #1108, #564, #560, .T. ) ;
#897 = DIRECTION ( 'NONE',  ( -2.891205793294679312E-16, 1.000000000000000000, 0.000000000000000000 ) ) ;
#898 = AXIS2_PLACEMENT_3D ( 'NONE', #314, #124, #603 ) ;
#899 = VERTEX_POINT ( 'NONE', #378 ) ;
#900 = PERSON_AND_ORGANIZATION_ROLE ( 'creator' ) ;
#901 = AXIS2_PLACEMENT_3D ( 'NONE', #712, #910, #523 ) ;
#902 = DIRECTION ( 'NONE',  ( 2.891205793294679312E-16, -1.000000000000000000, 1.110223024625156540E-16 ) ) ;
#903 = VERTEX_POINT ( 'NONE', #669 ) ;
#904 = MECHANICAL_CONTEXT ( 'NONE', #443, 'mechanical' ) ;
#905 = EDGE_CURVE ( 'NONE', #1, #1056, #1051, .T. ) ;
#906 = LINE ( 'NONE', #152, #357 ) ;
#907 = ORIENTED_EDGE ( 'NONE', *, *, #1087, .F. ) ;
#908 = LINE ( 'NONE', #629, #886 ) ;
#909 = LINE ( 'NONE', #1019, #1041 ) ;
#910 = DIRECTION ( 'NONE',  ( -0.000000000000000000, -0.000000000000000000, 1.000000000000000000 ) ) ;
#911 = ORIENTED_EDGE ( 'NONE', *, *, #1203, .F. ) ;
#912 = LINE ( 'NONE', #67, #557 ) ;
#913 = EDGE_CURVE ( 'NONE', #1145, #1036, #442, .T. ) ;
#914 = EDGE_CURVE ( 'NONE', #1188, #775, #145, .T. ) ;
#915 = DIRECTION ( 'NONE',  ( 1.000000000000000000, 0.000000000000000000, 0.000000000000000000 ) ) ;
#916 = DIRECTION ( 'NONE',  ( 5.981805089575211974E-16, 1.000000000000000000, 0.000000000000000000 ) ) ;
#917 = AXIS2_PLACEMENT_3D ( 'NONE', #354, #738, #1117 ) ;
#918 = VECTOR ( 'NONE', #1147, 1000.000000000000000 ) ;
#919 = ORIENTED_EDGE ( 'NONE', *, *, #151, .F. ) ;
#920 = FACE_OUTER_BOUND ( 'NONE', #273, .T. ) ;
#921 = DIRECTION ( 'NONE',  ( -0.000000000000000000, -1.110223024625156540E-16, -1.000000000000000000 ) ) ;
#922 = DIRECTION ( 'NONE',  ( 1.000000000000000000, 0.000000000000000000, 0.000000000000000000 ) ) ;
#923 = PLANE ( 'NONE',  #52 ) ;
#924 = ORIENTED_EDGE ( 'NONE', *, *, #27, .F. ) ;
#925 = PLANE ( 'NONE',  #536 ) ;
#926 = DIRECTION ( 'NONE',  ( -1.000000000000000000, 0.000000000000000000, -0.000000000000000000 ) ) ;
#927 = CARTESIAN_POINT ( 'NONE',  ( 13.75000000000000000, 57.74999999999999289, 8.000000000000000000 ) ) ;
#928 = CARTESIAN_POINT ( 'NONE',  ( 8.800000000000004263, 40.99999999999999289, 9.599999999999994316 ) ) ;
#929 = EDGE_CURVE ( 'NONE', #66, #137, #1198, .T. ) ;
#930 = ORIENTED_EDGE ( 'NONE', *, *, #890, .T. ) ;
#931 = DIRECTION ( 'NONE',  ( 1.000000000000000000, 0.000000000000000000, 0.000000000000000000 ) ) ;
#932 = AXIS2_PLACEMENT_3D ( 'NONE', #704, #128, #28 ) ;
#933 = CARTESIAN_POINT ( 'NONE',  ( -13.75000000000000000, 30.24999999999999645, 8.000000000000000000 ) ) ;
#934 = DIRECTION ( 'NONE',  ( -0.000000000000000000, -1.110223024625156540E-16, -1.000000000000000000 ) ) ;
#935 = CARTESIAN_POINT ( 'NONE',  ( -8.799999999999997158, 52.79999999999998295, 9.000000000000001776 ) ) ;
#936 = ORIENTED_EDGE ( 'NONE', *, *, #1026, .F. ) ;
#937 = AXIS2_PLACEMENT_3D ( 'NONE', #341, #156, #546 ) ;
#938 = ORIENTED_EDGE ( 'NONE', *, *, #595, .T. ) ;
#939 = VECTOR ( 'NONE', #399, 1000.000000000000000 ) ;
#940 = ORIENTED_EDGE ( 'NONE', *, *, #1158, .F. ) ;
#941 = CARTESIAN_POINT ( 'NONE',  ( 0.000000000000000000, 0.000000000000000000, 8.000000000000000000 ) ) ;
#942 = LINE ( 'NONE', #30, #245 ) ;
#943 = CARTESIAN_POINT ( 'NONE',  ( 0.000000000000000000, 0.000000000000000000, 8.000000000000000000 ) ) ;
#944 = EDGE_CURVE ( 'NONE', #130, #419, #277, .T. ) ;
#945 = ORIENTED_EDGE ( 'NONE', *, *, #595, .F. ) ;
#946 = ORIENTED_EDGE ( 'NONE', *, *, #3, .T. ) ;
#947 = FACE_OUTER_BOUND ( 'NONE', #612, .T. ) ;
#948 = ORIENTED_EDGE ( 'NONE', *, *, #808, .T. ) ;
#949 = LINE ( 'NONE', #479, #186 ) ;
#950 = PLANE ( 'NONE',  #792 ) ;
#951 = LINE ( 'NONE', #106, #719 ) ;
#952 = VERTEX_POINT ( 'NONE', #455 ) ;
#953 = ORIENTED_EDGE ( 'NONE', *, *, #1034, .F. ) ;
#954 = DIRECTION ( 'NONE',  ( -0.000000000000000000, 0.000000000000000000, 1.000000000000000000 ) ) ;
#955 = EDGE_CURVE ( 'NONE', #419, #406, #448, .T. ) ;
#956 = LINE ( 'NONE', #1159, #1195 ) ;
#957 = VECTOR ( 'NONE', #107, 1000.000000000000000 ) ;
#958 = FACE_OUTER_BOUND ( 'NONE', #157, .T. ) ;
#959 = ORIENTED_EDGE ( 'NONE', *, *, #1134, .F. ) ;
#960 = VECTOR ( 'NONE', #998, 1000.000000000000000 ) ;
#961 = ORIENTED_EDGE ( 'NONE', *, *, #131, .F. ) ;
#962 = AXIS2_PLACEMENT_3D ( 'NONE', #747, #1024, #1123 ) ;
#963 = DIRECTION ( 'NONE',  ( -0.000000000000000000, 0.000000000000000000, 1.000000000000000000 ) ) ;
#964 = EDGE_CURVE ( 'NONE', #757, #109, #434, .T. ) ;
#965 = FACE_OUTER_BOUND ( 'NONE', #452, .T. ) ;
#966 = ORIENTED_EDGE ( 'NONE', *, *, #385, .F. ) ;
#967 = ORIENTED_EDGE ( 'NONE', *, *, #905, .T. ) ;
#968 = ORIENTED_EDGE ( 'NONE', *, *, #733, .F. ) ;
#969 = PLANE ( 'NONE',  #208 ) ;
#970 = FACE_OUTER_BOUND ( 'NONE', #8, .T. ) ;
#971 = CARTESIAN_POINT ( 'NONE',  ( 13.30000000000000249, 41.00000000000000000, 9.599999999999994316 ) ) ;
#972 = ORIENTED_EDGE ( 'NONE', *, *, #22, .T. ) ;
#973 = DIRECTION ( 'NONE',  ( 0.000000000000000000, 1.000000000000000000, 0.000000000000000000 ) ) ;
#974 = CLOSED_SHELL ( 'NONE', ( #1049, #65, #160, #627, #779, #312, #828, #1183, #32, #566, #502, #711, #140, #1074, #1004, #630, #1092, #585, #1072, #837, #169, #295, #656, #702, #179, #457, #450, #119, #789, #1221, #76, #319, #754, #815, #439, #861, #690, #342 ) ) ;
#975 = EDGE_CURVE ( 'NONE', #1077, #458, #1106, .T. ) ;
#976 = EDGE_LOOP ( 'NONE', ( #94, #978, #919, #567 ) ) ;
#977 = CARTESIAN_POINT ( 'NONE',  ( -8.799999999999997158, 35.19999999999998153, -3.907985046680548971E-15 ) ) ;
#978 = ORIENTED_EDGE ( 'NONE', *, *, #1158, .T. ) ;
#979 = VECTOR ( 'NONE', #178, 1000.000000000000000 ) ;
#980 = AXIS2_PLACEMENT_3D ( 'NONE', #207, #1155, #1168 ) ;
#981 = EDGE_CURVE ( 'NONE', #202, #558, #307, .T. ) ;
#982 = CARTESIAN_POINT ( 'NONE',  ( -13.75000000000000000, 57.74999999999999289, 9.599999999999992539 ) ) ;
#983 = VERTEX_POINT ( 'NONE', #251 ) ;
#984 = PERSON_AND_ORGANIZATION_ROLE ( 'creator' ) ;
#985 = EDGE_CURVE ( 'NONE', #475, #869, #1132, .T. ) ;
#986 = DIRECTION ( 'NONE',  ( 0.000000000000000000, 0.000000000000000000, 1.000000000000000000 ) ) ;
#987 = VERTEX_POINT ( 'NONE', #641 ) ;
#988 = CARTESIAN_POINT ( 'NONE',  ( 16.74999999999999645, 63.00000000000000000, -4.000000000000000000 ) ) ;
#989 = CYLINDRICAL_SURFACE ( 'NONE', #1095, 1.399999999999998579 ) ;
#990 = AXIS2_PLACEMENT_3D ( 'NONE', #884, #308, #39 ) ;
#991 = APPLICATION_CONTEXT ( 'configuration controlled 3d designs of mechanical parts and assemblies' ) ;
#992 = ORIENTED_EDGE ( 'NONE', *, *, #606, .T. ) ;
#993 = DATE_AND_TIME ( #57, #461 ) ;
#994 = LOCAL_TIME ( 16, 25, 57.00000000000000000, #430 ) ;
#995 = AXIS2_PLACEMENT_3D ( 'NONE', #928, #99, #375 ) ;
#996 = AXIS2_PLACEMENT_3D ( 'NONE', #748, #264, #654 ) ;
#997 = CIRCLE ( 'NONE', #721, 1.400000000000001910 ) ;
#998 = DIRECTION ( 'NONE',  ( 2.891205793294679312E-16, 1.000000000000000000, -1.110223024625156540E-16 ) ) ;
#999 = ORIENTED_EDGE ( 'NONE', *, *, #1067, .F. ) ;
#1000 = DIRECTION ( 'NONE',  ( -1.000000000000000000, 0.000000000000000000, 0.000000000000000000 ) ) ;
#1001 = SHAPE_DEFINITION_REPRESENTATION ( #421, #593 ) ;
#1002 = CARTESIAN_POINT ( 'NONE',  ( 13.30000000000000249, 44.50000000000000000, 9.000000000000001776 ) ) ;
#1003 = DIRECTION ( 'NONE',  ( 0.000000000000000000, 0.000000000000000000, -1.000000000000000000 ) ) ;
#1004 = ADVANCED_FACE ( 'NONE', ( #1020 ), #1008, .F. ) ;
#1005 = ORIENTED_EDGE ( 'NONE', *, *, #866, .F. ) ;
#1006 = CARTESIAN_POINT ( 'NONE',  ( -13.29999999999999538, 43.50000000000000000, -4.829470157119430951E-15 ) ) ;
#1007 = DIRECTION ( 'NONE',  ( -1.000000000000000000, -1.541976423090495633E-15, 1.711937728344210134E-31 ) ) ;
#1008 = PLANE ( 'NONE',  #243 ) ;
#1009 = VERTEX_POINT ( 'NONE', #1033 ) ;
#1010 = PLANE ( 'NONE',  #437 ) ;
#1011 = DIRECTION ( 'NONE',  ( 0.000000000000000000, 1.000000000000000000, 0.000000000000000000 ) ) ;
#1012 = CARTESIAN_POINT ( 'NONE',  ( 16.74999999999999289, 24.99999999999999645, -4.000000000000000000 ) ) ;
#1013 = DIRECTION ( 'NONE',  ( 0.000000000000000000, 1.000000000000000000, 0.000000000000000000 ) ) ;
#1014 = AXIS2_PLACEMENT_3D ( 'NONE', #642, #482, #361 ) ;
#1015 = VECTOR ( 'NONE', #934, 1000.000000000000000 ) ;
#1016 = ORIENTED_EDGE ( 'NONE', *, *, #975, .T. ) ;
#1017 = ORIENTED_EDGE ( 'NONE', *, *, #146, .F. ) ;
#1018 = FACE_OUTER_BOUND ( 'NONE', #275, .T. ) ;
#1019 = CARTESIAN_POINT ( 'NONE',  ( -10.79999999999999361, 47.00000000000000000, -5.481726184086710418E-15 ) ) ;
#1020 = FACE_OUTER_BOUND ( 'NONE', #216, .T. ) ;
#1021 = DIRECTION ( 'NONE',  ( -0.000000000000000000, 1.000000000000000000, -0.000000000000000000 ) ) ;
#1022 = ORIENTED_EDGE ( 'NONE', *, *, #666, .T. ) ;
#1023 = LINE ( 'NONE', #1114, #34 ) ;
#1024 = DIRECTION ( 'NONE',  ( 0.000000000000000000, 1.110223024625156540E-16, 1.000000000000000000 ) ) ;
#1025 = LINE ( 'NONE', #551, #1015 ) ;
#1026 = EDGE_CURVE ( 'NONE', #775, #326, #70, .T. ) ;
#1027 = FACE_OUTER_BOUND ( 'NONE', #1040, .T. ) ;
#1028 = VERTEX_POINT ( 'NONE', #184 ) ;
#1029 = PLANE ( 'NONE',  #1030 ) ;
#1030 = AXIS2_PLACEMENT_3D ( 'NONE', #364, #102, #1151 ) ;
#1031 = VERTEX_POINT ( 'NONE', #271 ) ;
#1032 = LINE ( 'NONE', #373, #686 ) ;
#1033 = CARTESIAN_POINT ( 'NONE',  ( 39.09999999999999432, 24.99999999999999645, -4.000000000000000000 ) ) ;
#1034 = EDGE_CURVE ( 'NONE', #135, #96, #826, .T. ) ;
#1035 = CYLINDRICAL_SURFACE ( 'NONE', #820, 1.400000000000001910 ) ;
#1036 = VERTEX_POINT ( 'NONE', #63 ) ;
#1037 = VECTOR ( 'NONE', #1013, 1000.000000000000000 ) ;
#1038 = EDGE_CURVE ( 'NONE', #862, #44, #1084, .T. ) ;
#1039 = ORIENTED_EDGE ( 'NONE', *, *, #827, .F. ) ;
#1040 = EDGE_LOOP ( 'NONE', ( #992, #845, #24, #1086 ) ) ;
#1041 = VECTOR ( 'NONE', #433, 1000.000000000000000 ) ;
#1042 = LINE ( 'NONE', #565, #1137 ) ;
#1043 = ORIENTED_EDGE ( 'NONE', *, *, #981, .F. ) ;
#1044 = CARTESIAN_POINT ( 'NONE',  ( 13.75000000000000000, 56.34999999999999432, 8.000000000000000000 ) ) ;
#1045 = CARTESIAN_POINT ( 'NONE',  ( -13.29999999999999538, 41.00000000000000000, 9.599999999999994316 ) ) ;
#1046 = CARTESIAN_POINT ( 'NONE',  ( -13.29999999999999538, 44.50000000000000000, 5.000000000000000000 ) ) ;
#1047 = VERTEX_POINT ( 'NONE', #359 ) ;
#1048 = ORIENTED_EDGE ( 'NONE', *, *, #666, .F. ) ;
#1049 = ADVANCED_FACE ( 'NONE', ( #177 ), #731, .F. ) ;
#1050 = VERTEX_POINT ( 'NONE', #541 ) ;
#1051 = LINE ( 'NONE', #486, #402 ) ;
#1052 = CARTESIAN_POINT ( 'NONE',  ( -39.09999999999999432, 63.00000000000000000, -4.000000000000000000 ) ) ;
#1053 = DIRECTION ( 'NONE',  ( 0.000000000000000000, -1.110223024625156540E-16, -1.000000000000000000 ) ) ;
#1054 = EDGE_CURVE ( 'NONE', #952, #751, #602, .T. ) ;
#1055 = ORIENTED_EDGE ( 'NONE', *, *, #55, .T. ) ;
#1056 = VERTEX_POINT ( 'NONE', #648 ) ;
#1057 = VECTOR ( 'NONE', #579, 1000.000000000000000 ) ;
#1058 = CARTESIAN_POINT ( 'NONE',  ( -8.799999999999997158, 35.19999999999998153, -3.907985046680548971E-15 ) ) ;
#1059 = DIRECTION ( 'NONE',  ( -0.000000000000000000, -1.110223024625156540E-16, -1.000000000000000000 ) ) ;
#1060 = LINE ( 'NONE', #590, #660 ) ;
#1061 = FACE_OUTER_BOUND ( 'NONE', #173, .T. ) ;
#1062 = AXIS2_PLACEMENT_3D ( 'NONE', #530, #1215, #645 ) ;
#1063 = ORIENTED_EDGE ( 'NONE', *, *, #874, .F. ) ;
#1064 = VECTOR ( 'NONE', #1131, 1000.000000000000000 ) ;
#1065 = DIRECTION ( 'NONE',  ( 1.000000000000000000, 0.000000000000000000, 0.000000000000000000 ) ) ;
#1066 = DIRECTION ( 'NONE',  ( 0.000000000000000000, 1.000000000000000000, -1.110223024625156540E-16 ) ) ;
#1067 = EDGE_CURVE ( 'NONE', #350, #248, #1025, .T. ) ;
#1068 = EDGE_LOOP ( 'NONE', ( #936, #592, #196, #713 ) ) ;
#1069 = LINE ( 'NONE', #509, #47 ) ;
#1070 = ORIENTED_EDGE ( 'NONE', *, *, #496, .T. ) ;
#1071 = LINE ( 'NONE', #374, #92 ) ;
#1072 = ADVANCED_FACE ( 'NONE', ( #88 ), #105, .F. ) ;
#1073 = DIRECTION ( 'NONE',  ( -0.000000000000000000, -1.110223024625156540E-16, -1.000000000000000000 ) ) ;
#1074 = ADVANCED_FACE ( 'NONE', ( #858 ), #950, .F. ) ;
#1075 = VERTEX_POINT ( 'NONE', #4 ) ;
#1076 = LINE ( 'NONE', #222, #852 ) ;
#1077 = VERTEX_POINT ( 'NONE', #1140 ) ;
#1078 = APPROVAL_DATE_TIME ( #316, #1107 ) ;
#1079 = EDGE_CURVE ( 'NONE', #451, #853, #500, .T. ) ;
#1080 = FACE_OUTER_BOUND ( 'NONE', #369, .T. ) ;
#1081 = EDGE_CURVE ( 'NONE', #512, #558, #219, .T. ) ;
#1082 = ORIENTED_EDGE ( 'NONE', *, *, #22, .F. ) ;
#1083 = VECTOR ( 'NONE', #882, 1000.000000000000000 ) ;
#1084 = CIRCLE ( 'NONE', #322, 1.400000000000000133 ) ;
#1085 = PLANE ( 'NONE',  #844 ) ;
#1086 = ORIENTED_EDGE ( 'NONE', *, *, #524, .T. ) ;
#1087 = EDGE_CURVE ( 'NONE', #757, #419, #618, .T. ) ;
#1088 = PERSON_AND_ORGANIZATION ( #426, #334 ) ;
#1089 = CARTESIAN_POINT ( 'NONE',  ( -8.799999999999997158, 35.19999999999998153, 9.000000000000001776 ) ) ;
#1090 = APPROVAL ( #800, '未指定' ) ;
#1091 = ORIENTED_EDGE ( 'NONE', *, *, #955, .T. ) ;
#1092 = ADVANCED_FACE ( 'NONE', ( #379 ), #576, .F. ) ;
#1093 = CALENDAR_DATE ( 2026, 17, 6 ) ;
#1094 = CARTESIAN_POINT ( 'NONE',  ( -10.79999999999999538, 43.50000000000000000, 0.000000000000000000 ) ) ;
#1095 = AXIS2_PLACEMENT_3D ( 'NONE', #888, #503, #798 ) ;
#1096 = ORIENTED_EDGE ( 'NONE', *, *, #1129, .F. ) ;
#1097 = LINE ( 'NONE', #175, #601 ) ;
#1098 = AXIS2_PLACEMENT_3D ( 'NONE', #710, #803, #224 ) ;
#1099 = VECTOR ( 'NONE', #624, 1000.000000000000000 ) ;
#1100 = CARTESIAN_POINT ( 'NONE',  ( -16.75000000000000000, 24.99999999999999289, -4.000000000000000000 ) ) ;
#1101 = AXIS2_PLACEMENT_3D ( 'NONE', #303, #769, #298 ) ;
#1102 = LINE ( 'NONE', #821, #960 ) ;
#1103 = ORIENTED_EDGE ( 'NONE', *, *, #55, .F. ) ;
#1104 = CARTESIAN_POINT ( 'NONE',  ( -13.75000000000000000, 57.74999999999999289, 8.000000000000000000 ) ) ;
#1105 = PLANE ( 'NONE',  #210 ) ;
#1106 = LINE ( 'NONE', #727, #791 ) ;
#1107 = APPROVAL ( #229, '未指定' ) ;
#1108 = VERTEX_POINT ( 'NONE', #487 ) ;
#1109 = DIRECTION ( 'NONE',  ( 0.000000000000000000, -1.000000000000000000, 1.110223024625156540E-16 ) ) ;
#1110 = CYLINDRICAL_SURFACE ( 'NONE', #287, 1.399999999999998579 ) ;
#1111 = CARTESIAN_POINT ( 'NONE',  ( 13.75000000000000000, 30.24999999999999645, 9.599999999999996092 ) ) ;
#1112 = DIRECTION ( 'NONE',  ( 1.000000000000000000, 0.000000000000000000, 0.000000000000000000 ) ) ;
#1113 = ORIENTED_EDGE ( 'NONE', *, *, #478, .T. ) ;
#1114 = CARTESIAN_POINT ( 'NONE',  ( 8.800000000000007816, 52.79999999999998295, 9.599999999999994316 ) ) ;
#1115 = FACE_BOUND ( 'NONE', #587, .T. ) ;
#1116 = CARTESIAN_POINT ( 'NONE',  ( 13.30000000000000249, 44.50000000000000000, -5.204170427930421283E-15 ) ) ;
#1117 = DIRECTION ( 'NONE',  ( 0.000000000000000000, 1.000000000000000000, -1.110223024625156540E-16 ) ) ;
#1118 = VECTOR ( 'NONE', #1202, 1000.000000000000000 ) ;
#1119 = AXIS2_PLACEMENT_3D ( 'NONE', #447, #531, #170 ) ;
#1120 = ORIENTED_EDGE ( 'NONE', *, *, #508, .F. ) ;
#1121 = ORIENTED_EDGE ( 'NONE', *, *, #349, .T. ) ;
#1122 = DIRECTION ( 'NONE',  ( -0.000000000000000000, 0.000000000000000000, 1.000000000000000000 ) ) ;
#1123 = DIRECTION ( 'NONE',  ( 0.000000000000000000, -1.000000000000000000, 0.000000000000000000 ) ) ;
#1124 = DIRECTION ( 'NONE',  ( 1.000000000000000000, 0.000000000000000000, 0.000000000000000000 ) ) ;
#1125 = FACE_OUTER_BOUND ( 'NONE', #774, .T. ) ;
#1126 = ORIENTED_EDGE ( 'NONE', *, *, #1172, .T. ) ;
#1127 = ORIENTED_EDGE ( 'NONE', *, *, #1038, .F. ) ;
#1128 = ORIENTED_EDGE ( 'NONE', *, *, #198, .T. ) ;
#1129 = EDGE_CURVE ( 'NONE', #66, #211, #1071, .T. ) ;
#1130 = ORIENTED_EDGE ( 'NONE', *, *, #929, .T. ) ;
#1131 = DIRECTION ( 'NONE',  ( -0.000000000000000000, -1.000000000000000000, -0.000000000000000000 ) ) ;
#1132 = LINE ( 'NONE', #819, #822 ) ;
#1133 = CARTESIAN_POINT ( 'NONE',  ( 13.75000000000000000, 59.14999999999999147, -6.566969190657799990E-15 ) ) ;
#1134 = EDGE_CURVE ( 'NONE', #643, #137, #942, .T. ) ;
#1135 = ORIENTED_EDGE ( 'NONE', *, *, #639, .F. ) ;
#1136 = ORIENTED_EDGE ( 'NONE', *, *, #195, .T. ) ;
#1137 = VECTOR ( 'NONE', #651, 1000.000000000000000 ) ;
#1138 = ORIENTED_EDGE ( 'NONE', *, *, #391, .F. ) ;
#1139 = PLANE ( 'NONE',  #767 ) ;
#1140 = CARTESIAN_POINT ( 'NONE',  ( -39.09999999999999432, 63.00000000000000000, 9.000000000000001776 ) ) ;
#1141 = LINE ( 'NONE', #165, #520 ) ;
#1142 = EDGE_CURVE ( 'NONE', #1028, #605, #98, .T. ) ;
#1143 = CIRCLE ( 'NONE', #901, 2.500000000000000444 ) ;
#1144 = CIRCLE ( 'NONE', #980, 1.399999999999998579 ) ;
#1145 = VERTEX_POINT ( 'NONE', #761 ) ;
#1146 = ORIENTED_EDGE ( 'NONE', *, *, #411, .T. ) ;
#1147 = DIRECTION ( 'NONE',  ( -1.000000000000000000, -0.000000000000000000, -0.000000000000000000 ) ) ;
#1148 = CARTESIAN_POINT ( 'NONE',  ( -8.799999999999997158, 40.99999999999999289, -4.551914400963141027E-15 ) ) ;
#1149 = CARTESIAN_POINT ( 'NONE',  ( 39.09999999999999432, 24.99999999999999645, -4.000000000000000000 ) ) ;
#1150 = VERTEX_POINT ( 'NONE', #670 ) ;
#1151 = DIRECTION ( 'NONE',  ( -0.000000000000000000, 0.000000000000000000, 1.000000000000000000 ) ) ;
#1152 = ORIENTED_EDGE ( 'NONE', *, *, #238, .F. ) ;
#1153 = DIRECTION ( 'NONE',  ( -0.000000000000000000, -0.000000000000000000, 1.000000000000000000 ) ) ;
#1154 = DIRECTION ( 'NONE',  ( -1.000000000000000000, 2.891205793294679312E-16, -3.209883240645394001E-32 ) ) ;
#1155 = DIRECTION ( 'NONE',  ( 0.000000000000000000, -1.110223024625156540E-16, -1.000000000000000000 ) ) ;
#1156 = ORIENTED_EDGE ( 'NONE', *, *, #674, .T. ) ;
#1157 = ORIENTED_EDGE ( 'NONE', *, *, #534, .T. ) ;
#1158 = EDGE_CURVE ( 'NONE', #148, #1050, #200, .T. ) ;
#1159 = CARTESIAN_POINT ( 'NONE',  ( -13.29999999999999538, 43.50000000000000000, 9.000000000000001776 ) ) ;
#1160 = VECTOR ( 'NONE', #392, 1000.000000000000000 ) ;
#1161 = CARTESIAN_POINT ( 'NONE',  ( 8.800000000000004263, 35.19999999999998153, 9.599999999999996092 ) ) ;
#1162 = CARTESIAN_POINT ( 'NONE',  ( -16.75000000000000000, 63.00000000000000000, -4.000000000000000000 ) ) ;
#1163 = CIRCLE ( 'NONE', #788, 2.500000000000000444 ) ;
#1164 = AXIS2_PLACEMENT_3D ( 'NONE', #441, #176, #926 ) ;
#1165 = ORIENTED_EDGE ( 'NONE', *, *, #159, .T. ) ;
#1166 = VECTOR ( 'NONE', #1059, 1000.000000000000000 ) ;
#1167 = DIRECTION ( 'NONE',  ( 9.130123557772667102E-17, 1.000000000000000000, -0.000000000000000000 ) ) ;
#1168 = DIRECTION ( 'NONE',  ( 0.000000000000000000, 1.000000000000000000, -1.110223024625156540E-16 ) ) ;
#1169 = ORIENTED_EDGE ( 'NONE', *, *, #944, .T. ) ;
#1170 = CARTESIAN_POINT ( 'NONE',  ( 8.800000000000004263, 35.19999999999998153, 9.000000000000001776 ) ) ;
#1171 = EDGE_LOOP ( 'NONE', ( #924, #535, #397, #695 ) ) ;
#1172 = EDGE_CURVE ( 'NONE', #983, #121, #291, .T. ) ;
#1173 = CARTESIAN_POINT ( 'NONE',  ( -8.799999999999997158, 40.99999999999999289, 9.599999999999994316 ) ) ;
#1174 = ORIENTED_EDGE ( 'NONE', *, *, #573, .T. ) ;
#1175 = DATE_AND_TIME ( #1093, #634 ) ;
#1176 = EDGE_CURVE ( 'NONE', #751, #142, #956, .T. ) ;
#1177 = EDGE_CURVE ( 'NONE', #470, #248, #664, .T. ) ;
#1178 = LINE ( 'NONE', #1173, #829 ) ;
#1179 = ORIENTED_EDGE ( 'NONE', *, *, #770, .T. ) ;
#1180 = LOCAL_TIME ( 16, 25, 57.00000000000000000, #796 ) ;
#1181 = SECURITY_CLASSIFICATION_LEVEL ( 'unclassified' ) ;
#1182 = AXIS2_PLACEMENT_3D ( 'NONE', #941, #776, #568 ) ;
#1183 = ADVANCED_FACE ( 'NONE', ( #111 ), #117, .T. ) ;
#1184 = DIRECTION ( 'NONE',  ( -1.000000000000000000, 0.000000000000000000, 0.000000000000000000 ) ) ;
#1185 = ORIENTED_EDGE ( 'NONE', *, *, #964, .F. ) ;
#1186 = APPROVAL_DATE_TIME ( #1175, #1090 ) ;
#1187 = LINE ( 'NONE', #54, #209 ) ;
#1188 = VERTEX_POINT ( 'NONE', #494 ) ;
#1189 = CARTESIAN_POINT ( 'NONE',  ( 13.75000000000000000, 28.84999999999999432, -3.202993426043575988E-15 ) ) ;
#1190 =( NAMED_UNIT ( * ) PLANE_ANGLE_UNIT ( ) SI_UNIT ( $, .RADIAN. ) );
#1191 = FACE_OUTER_BOUND ( 'NONE', #281, .T. ) ;
#1192 = LINE ( 'NONE', #239, #868 ) ;
#1193 = EDGE_LOOP ( 'NONE', ( #174, #635, #1096, #1130 ) ) ;
#1194 = DIRECTION ( 'NONE',  ( 0.000000000000000000, 0.000000000000000000, -1.000000000000000000 ) ) ;
#1195 = VECTOR ( 'NONE', #283, 1000.000000000000000 ) ;
#1196 = AXIS2_PLACEMENT_3D ( 'NONE', #381, #20, #583 ) ;
#1197 = DIRECTION ( 'NONE',  ( 0.000000000000000000, 0.000000000000000000, -1.000000000000000000 ) ) ;
#1198 = LINE ( 'NONE', #1012, #383 ) ;
#1199 = CIRCLE ( 'NONE', #559, 1.399999999999998579 ) ;
#1200 = LINE ( 'NONE', #424, #262 ) ;
#1201 = ORIENTED_EDGE ( 'NONE', *, *, #371, .T. ) ;
#1202 = DIRECTION ( 'NONE',  ( -0.000000000000000000, 1.110223024625156540E-16, 1.000000000000000000 ) ) ;
#1203 = EDGE_CURVE ( 'NONE', #458, #1214, #877, .T. ) ;
#1204 = DIRECTION ( 'NONE',  ( -1.000000000000000000, 0.000000000000000000, -0.000000000000000000 ) ) ;
#1205 = DIRECTION ( 'NONE',  ( 0.000000000000000000, 0.000000000000000000, -1.000000000000000000 ) ) ;
#1206 = AXIS2_PLACEMENT_3D ( 'NONE', #971, #694, #897 ) ;
#1207 = EDGE_CURVE ( 'NONE', #166, #899, #394, .T. ) ;
#1208 = ORIENTED_EDGE ( 'NONE', *, *, #740, .F. ) ;
#1209 = CARTESIAN_POINT ( 'NONE',  ( -8.799999999999997158, 52.79999999999998295, 9.599999999999994316 ) ) ;
#1210 = DIRECTION ( 'NONE',  ( -1.000000000000000000, 0.000000000000000000, 0.000000000000000000 ) ) ;
#1211 = CARTESIAN_POINT ( 'NONE',  ( -10.79999999999999361, 44.50000000000000000, 9.000000000000001776 ) ) ;
#1212 = CARTESIAN_POINT ( 'NONE',  ( -13.75000000000000000, 31.64999999999999858, 8.000000000000000000 ) ) ;
#1213 = VECTOR ( 'NONE', #23, 1000.000000000000000 ) ;
#1214 = VERTEX_POINT ( 'NONE', #214 ) ;
#1215 = DIRECTION ( 'NONE',  ( 0.000000000000000000, -1.110223024625156540E-16, -1.000000000000000000 ) ) ;
#1216 = CYLINDRICAL_SURFACE ( 'NONE', #962, 2.500000000000002220 ) ;
#1217 = DIRECTION ( 'NONE',  ( 1.000000000000000000, -0.000000000000000000, -0.000000000000000000 ) ) ;
#1218 = CARTESIAN_POINT ( 'NONE',  ( 13.30000000000000249, 43.50000000000000000, 9.000000000000001776 ) ) ;
#1219 = CIRCLE ( 'NONE', #765, 2.500000000000000444 ) ;
#1220 = AXIS2_PLACEMENT_3D ( 'NONE', #366, #849, #663 ) ;
#1221 = ADVANCED_FACE ( 'NONE', ( #589 ), #969, .F. ) ;
#1222 = ORIENTED_EDGE ( 'NONE', *, *, #1079, .F. ) ;
#1223 = CARTESIAN_POINT ( 'NONE',  ( -16.75000000000000000, 24.99999999999999289, -4.000000000000000000 ) ) ;
#1224 = EDGE_LOOP ( 'NONE', ( #1185, #492, #182, #657 ) ) ;
#1225 = FACE_OUTER_BOUND ( 'NONE', #370, .T. ) ;
#1226 = CARTESIAN_POINT ( 'NONE',  ( 13.75000000000000000, 28.84999999999999432, 9.599999999999996092 ) ) ;
#1227 = LINE ( 'NONE', #266, #161 ) ;
#1228 = ORIENTED_EDGE ( 'NONE', *, *, #42, .F. ) ;
#1229 = ORIENTED_EDGE ( 'NONE', *, *, #213, .F. ) ;
ENDSEC;
END-ISO-10303-21;
